G04 ================== begin FILE IDENTIFICATION RECORD ==================*
G04 Layout Name:  C:/USERS/USER/DESKTOP/WORK/AVRUSB500/allegro/my__AVRUSB500.brd*
G04 Film Name:    AutosilkT*
G04 File Format:  Gerber RS274X*
G04 File Origin:  Cadence Allegro 17.2-P019*
G04 Origin Date:  Mon Jul 29 17:20:02 2019*
G04 *
G04 Layer:  MANUFACTURING/AUTOSILK_TOP*
G04 *
G04 Offset:    (0.000 0.000)*
G04 Mirror:    No*
G04 Mode:      Positive*
G04 Rotation:  0*
G04 FullContactRelief:  No*
G04 UndefLineWidth:     0.000*
G04 ================== end FILE IDENTIFICATION RECORD ====================*
%FSLAX25Y25*MOMM*%
%IR0*IPPOS*OFA0.00000B0.00000*MIA0B0*SFA1.00000B1.00000*%
%ADD10C,.203*%
%ADD11C,.152*%
%ADD12C,.254*%
G75*
%LPD*%
G75*
G54D10*
G01X25431700Y19304000D02*
G03X25146000Y19589700I-285700J0D01*
G01D02*
G03X24860300Y19304000I0J-285700D01*
G01D02*
G03X25146000Y19018300I285700J0D01*
G01D02*
G03X25431700Y19304000I0J285700D01*
G01X24892000Y20942300D02*
Y21082000D01*
G01D02*
Y21336000D01*
G01D02*
Y21590000D01*
G01D02*
Y21844000D01*
G01X25146000Y22237700D02*
Y20942300D01*
G01D02*
X24892000D01*
G01Y21844000D02*
Y22098000D01*
G01D02*
Y22237700D01*
G01D02*
X25146000D01*
G01X25006300Y22987000D02*
X25146000D01*
G01D02*
X25400000D01*
G01D02*
X25654000D01*
G01X26301700Y22733000D02*
X25006300D01*
G01D02*
Y22987000D01*
G01X26066700Y19304000D02*
G03X25781000Y19589700I-285700J0D01*
G01D02*
G03X25495300Y19304000I0J-285700D01*
G01D02*
G03X25781000Y19018300I285700J0D01*
G01D02*
G03X26066700Y19304000I0J285700D01*
G01X26416000Y19589700D02*
G03X26130300Y19304000I0J-285700D01*
G01D02*
G03X26416000Y19018300I285700J0D01*
G01X25654000Y22987000D02*
X25908000D01*
G01D02*
X26162000D01*
G01D02*
X26301700D01*
G01X26701700Y19304000D02*
G03X26416000Y19589700I-285700J0D01*
G01Y19018300D02*
G03X26701700Y19304000I0J285700D01*
G01X26733500Y19812000D02*
Y20320000D01*
G01X27876500Y19812000D02*
X26733500D01*
G01Y20320000D02*
X27876500D01*
G01X26301700Y22987000D02*
Y22733000D01*
G01X27876500Y20320000D02*
Y19812000D01*
G01X30480000Y20942300D02*
Y21082000D01*
G01D02*
Y21336000D01*
G01D02*
Y21590000D01*
G01D02*
Y21844000D01*
G01X30734000Y22237700D02*
Y20942300D01*
G01D02*
X30480000D01*
G01Y21844000D02*
Y22098000D01*
G01D02*
Y22237700D01*
G01D02*
X30734000D01*
G01X31146700Y23177500D02*
G03X30829300Y22860000I0J-317400D01*
G01X31146700Y22542500D02*
G03Y23177500I0J317500D01*
G01X30829300Y22860000D02*
G03X31146700Y22542500I317400J-100D01*
G01X33401000Y20637500D02*
X32893000D01*
G01D02*
Y21780500D01*
G01D02*
X33401000D01*
G01D02*
Y20637500D01*
G54D11*
G01X24838700Y19862800D02*
Y20269200D01*
G01X25534600Y19862800D02*
X24838700D01*
G01Y20269200D02*
X25534600D01*
G01X25727700Y19862800D02*
Y20269200D01*
G01X26423600Y19862800D02*
X25727700D01*
G01X25534600Y20269200D02*
Y19862800D01*
G01X25727700Y20269200D02*
X26423600D01*
G01X25727700Y20624800D02*
Y21031200D01*
G01X26423600Y20624800D02*
X25727700D01*
G01Y21031200D02*
X26423600D01*
G01X25727700Y21666200D02*
X26423600D01*
G01X25727700Y21259800D02*
Y21666200D01*
G01X26423600Y21259800D02*
X25727700D01*
G01Y22301200D02*
X26423600D01*
G01X25727700Y21894800D02*
Y22301200D01*
G01X26423600Y21894800D02*
X25727700D01*
G01X26423600Y20269200D02*
Y19862800D01*
G01Y21031200D02*
Y20624800D01*
G01Y21666200D02*
Y21259800D01*
G01Y22301200D02*
Y21894800D01*
G01X26870700Y23063200D02*
X27566600D01*
G01X26870700Y22656800D02*
Y23063200D01*
G01X27566600Y22656800D02*
X26870700D01*
G01X27566600Y23063200D02*
Y22656800D01*
G01X28521700Y19380200D02*
X29217600D01*
G01X28521700Y18973800D02*
Y19380200D01*
G01X29217600Y18973800D02*
X28521700D01*
G01X28371800Y20520700D02*
Y21216600D01*
G01X28778200Y20520700D02*
X28371800D01*
G01Y21216600D02*
X28778200D01*
G01X27886700Y21640800D02*
Y22047200D01*
G01X28582600Y21640800D02*
X27886700D01*
G01Y22047200D02*
X28582600D01*
G01X27886700Y22148800D02*
Y22555200D01*
G01X28582600Y22148800D02*
X27886700D01*
G01Y23063200D02*
X28582600D01*
G01X27886700Y22656800D02*
Y23063200D01*
G01X28582600Y22656800D02*
X27886700D01*
G01Y22555200D02*
X28582600D01*
G01X29217600Y19380200D02*
Y18973800D01*
G01X29029700Y20015200D02*
X29725600D01*
G01X29029700Y19608800D02*
Y20015200D01*
G01X29725600Y19608800D02*
X29029700D01*
G01X28778200Y21216600D02*
Y20520700D01*
G01X29029700Y20650200D02*
X29725600D01*
G01X29029700Y20243800D02*
Y20650200D01*
G01X29725600Y20243800D02*
X29029700D01*
G01X28582600Y22047200D02*
Y21640800D01*
G01X29029700Y21539200D02*
X29725600D01*
G01X29029700Y21132800D02*
Y21539200D01*
G01X29725600Y21132800D02*
X29029700D01*
G01X29644300Y21640800D02*
X28948400D01*
G01D02*
Y22047200D01*
G01X29644300Y22148800D02*
X28948400D01*
G01D02*
Y22555200D01*
G01X28582600D02*
Y22148800D01*
G01X28948400Y22047200D02*
X29491600D01*
G01X28902700Y23063200D02*
X29598600D01*
G01X28902700Y22656800D02*
Y23063200D01*
G01X29598600Y22656800D02*
X28902700D01*
G01X28948400Y22555200D02*
X29644300D01*
G01X28582600Y23063200D02*
Y22656800D01*
G01X29725600Y20015200D02*
Y19608800D01*
G01Y20650200D02*
Y20243800D01*
G01Y21539200D02*
Y21132800D01*
G01X29644300Y22047200D02*
Y21640800D01*
G01Y22555200D02*
Y22388700D01*
G01Y22315300D02*
Y22148800D01*
G01X29563400Y22047200D02*
X29644300D01*
G01X29598600Y23063200D02*
Y22656800D01*
G01X31445200Y19611300D02*
Y18915400D01*
G01X31038800D02*
Y19611300D01*
G01X31445200Y18915400D02*
X31038800D01*
G01Y19611300D02*
X31445200D01*
G01X31823700Y20116800D02*
Y20523200D01*
G01X32519600Y20116800D02*
X31823700D01*
G01Y20523200D02*
X32519600D01*
G01X32331700Y22148800D02*
Y22555200D01*
G01X33027600Y22148800D02*
X32331700D01*
G01Y22555200D02*
X33027600D01*
G01X32331700Y23063200D02*
X33027600D01*
G01X32331700Y22656800D02*
Y23063200D01*
G01X33027600Y22656800D02*
X32331700D01*
G01X32519600Y20523200D02*
Y20116800D01*
G01X33027600Y22555200D02*
Y22148800D01*
G01Y23063200D02*
Y22656800D01*
G01X33324800Y21917700D02*
Y22613600D01*
G01X33731200Y21917700D02*
X33324800D01*
G01X33731200Y22613600D02*
Y21917700D01*
G01X33324800Y22613600D02*
X33731200D01*
G54D12*
G01X27753300Y21012700D02*
X27610600D01*
G01X31172700Y21014700D02*
Y21157400D01*
M02*
