G04 ================== begin FILE IDENTIFICATION RECORD ==================*
G04 Layout Name:  C:/USERS/USER/DESKTOP/WORK/AVRUSB500/allegro/my__AVRUSB500.brd*
G04 Film Name:    BOTTOM*
G04 File Format:  Gerber RS274X*
G04 File Origin:  Cadence Allegro 17.2-P019*
G04 Origin Date:  Mon Jul 29 17:21:58 2019*
G04 *
G04 Layer:  ETCH/BOTTOM*
G04 Layer:  PIN/BOTTOM*
G04 Layer:  VIA CLASS/BOTTOM*
G04 *
G04 Offset:    (0.000 0.000)*
G04 Mirror:    No*
G04 Mode:      Positive*
G04 Rotation:  0*
G04 FullContactRelief:  No*
G04 UndefLineWidth:     0.000*
G04 ================== end FILE IDENTIFICATION RECORD ====================*
%FSLAX25Y25*MOMM*%
%IR0*IPPOS*OFA0.00000B0.00000*MIA0B0*SFA1.00000B1.00000*%
%ADD11C,1.321*%
%ADD10R,1.321X1.321*%
%ADD12C,1.575*%
%ADD13R,1.575X1.575*%
%ADD15O,1.9X1.2*%
%ADD14C,.61*%
%ADD16C,.254*%
%ADD17C,.381*%
%ADD18C,.382*%
%ADD24R,1.147X.512*%
%ADD21C,1.58*%
%ADD19C,1.834*%
%ADD23R,1.756X.512*%
%ADD25R,1.758X.512*%
%ADD22R,.512X.512*%
%ADD26R,.64X.512*%
%ADD20C,.868*%
G75*
%LPD*%
G75*
G36*
G01X24557100Y18842100D02*
Y23241900D01*
X33956900D01*
Y18842100D01*
X24557100D01*
G37*
%LPC*%
G75*
G36*
G01X31226900Y22851800D02*
G02X31279900Y22785300I78566J8246D01*
G02X31227000Y22851300I25599J74718D01*
G03X31226900Y22851800I-10022J-1744D01*
G37*
G36*
G01X31054100Y22781000D02*
X30921900D01*
G02X30909000Y22793900I50J12950D01*
G01Y22926100D01*
G02X30921900Y22939000I12950J-50D01*
G01X31054100D01*
G02X31067000Y22926100I-50J-12950D01*
G01Y22793900D01*
G02X31054100Y22781000I-12950J50D01*
G37*
G36*
G01X26240800Y22768400D02*
X26083200D01*
G02X26070400Y22781200I50J12850D01*
G01Y22938800D01*
G02X26083200Y22951600I12850J-50D01*
G01X26240800D01*
G02X26253600Y22938800I-50J-12850D01*
G01Y22781200D01*
G02X26240800Y22768400I-12850J50D01*
G37*
G36*
G01X33871100Y22697900D02*
G02X33819900I-25600J35100D01*
G01Y22698000D01*
G02X33871100I25600J35000D01*
G01Y22697900D01*
G37*
G36*
G01X29619500Y22377600D02*
G02Y22326400I35000J-25600D01*
G01X29619400D01*
G02Y22377600I35100J25600D01*
G01X29619500D01*
G37*
G36*
G01X31842000Y22187100D02*
G02Y22135900I35000J-25600D01*
G01X31296400D01*
Y22187100D01*
X31842000D01*
G37*
G36*
G01X26825400Y22090200D02*
X26797000Y22061800D01*
X26760800Y22098000D01*
X26797000Y22134200D01*
X26841000Y22090200D01*
X26825400D01*
G37*
G36*
G01X30685800Y22006400D02*
X30528200D01*
G02X30515400Y22019200I50J12850D01*
G01Y22072400D01*
X30390900D01*
Y22123600D01*
X30515400D01*
Y22176800D01*
G02X30528200Y22189600I12850J-50D01*
G01X30685800D01*
G02X30698600Y22176800I-50J-12850D01*
G01Y22019200D01*
G02X30685800Y22006400I-12850J50D01*
G37*
G36*
G01X25097800D02*
X24940200D01*
G02X24927400Y22019200I50J12850D01*
G01Y22176800D01*
G02X24940200Y22189600I12850J-50D01*
G01X25097800D01*
G02X25110600Y22176800I-50J-12850D01*
G01Y22019200D01*
G02X25097800Y22006400I-12850J50D01*
G37*
G36*
G01X29299100Y22002500D02*
X28951300D01*
X28955600Y22006800D01*
G03X28948400Y22024200I-7220J7202D01*
G01X28930100D01*
X28887800Y22066500D01*
X29252300D01*
X29299100Y22019700D01*
Y22002500D01*
G37*
G36*
G01X30833700Y22034500D02*
X30797500Y21998300D01*
X30761300Y22034500D01*
X30797500Y22070700D01*
X30833700Y22034500D01*
G37*
G36*
G01X27721000Y21881900D02*
G02Y21933100I-35000J25600D01*
G01X27721100D01*
G02Y21881900I-35100J-25600D01*
G01X27721000D01*
G37*
G36*
G01X31206400Y21861400D02*
X31237800Y21830000D01*
G02X31206400Y21861400I4141J35541D01*
G37*
G36*
G01X31163300Y21822600D02*
G02X31198100Y21779100I-84J-35737D01*
G01X31154600Y21822600D01*
X31163300D01*
G37*
G36*
G01X30886600Y21760800D02*
X30835400Y21709600D01*
Y21800200D01*
X30886600Y21851400D01*
Y21760800D01*
G37*
G36*
G01X28730600Y21709400D02*
X28673400D01*
X28661200Y21721600D01*
X28700300Y21760600D01*
X28709400D01*
X28797500Y21848700D01*
Y21776300D01*
X28730600Y21709400D01*
G37*
G36*
G01X27965600Y21688800D02*
X27946300D01*
G02X27933400Y21701700I50J12950D01*
G01Y21886700D01*
X27965600Y21854500D01*
Y21688800D01*
G37*
G36*
G01X31532700Y21751500D02*
G02X31530000Y21748800I29300J-32000D01*
G01Y21751500D01*
X31532700D01*
G37*
G36*
G01X26695600Y21536500D02*
X26644400D01*
Y21588300D01*
X26645000Y21587700D01*
X26695600D01*
Y21536500D01*
G37*
G36*
G01X30657800Y21666300D02*
G02X30556200I-50800J-76300D01*
G03X30550600Y21685000I-5667J8491D01*
G01X30276200D01*
X29958700Y22002500D01*
X29556800D01*
G02X29498200I-29300J32000D01*
G01X29477700D01*
Y22030000D01*
X29484100Y22036400D01*
X29484300Y22038200D01*
G02X29487700Y22051800I43237J-3584D01*
G03X29478300Y22066000I-9380J4002D01*
G01X29387200D01*
X29386700Y22066500D01*
X29498200D01*
G02X29556800I29300J-32000D01*
G01X29879200D01*
G03X29886400Y22083900I-20J10198D01*
G01X29783200Y22187100D01*
X29855600D01*
X29919100Y22123600D01*
X30109600D01*
X30160800Y22072400D01*
X30004000D01*
G03X29996800Y22055000I-8J-10186D01*
G01X30302800Y21749000D01*
X30550600D01*
G03X30556200Y21767700I-67J10209D01*
G02X30518900Y21869700I50764J76384D01*
G01X30520000Y21873100D01*
G02X30539000Y21905600I87005J-29061D01*
G03X30539300Y21905900I-7038J7338D01*
G02X30651200Y21924400I67703J-61840D01*
G01X30734000Y22007200D01*
X30770200Y21971000D01*
X30687400Y21888200D01*
X30689100Y21884900D01*
G02X30657800Y21767700I-82091J-40856D01*
G03X30663400Y21749000I5667J-8491D01*
G01X30784200D01*
X30823100Y21787900D01*
Y21697300D01*
X30810800Y21685000D01*
X30663400D01*
G03X30657800Y21666300I67J-10209D01*
G37*
G36*
G01X28427700Y21395800D02*
G02X28355200Y21367500I-43223J3713D01*
G01X27863200D01*
X27781000Y21449700D01*
Y21687700D01*
G02X27783700Y21749000I32000J29300D01*
G02X27842300I29300J-32050D01*
G02X27856100Y21722400I-29294J-32077D01*
G02X27845000Y21687700I-43074J-5347D01*
G01Y21687600D01*
G02X27830900Y21677400I-31984J29367D01*
G01X27827900Y21676100D01*
Y21667700D01*
X27835000D01*
X27845000Y21657700D01*
Y21476300D01*
X27889800Y21431500D01*
X27954300D01*
G03X27963700Y21445700I20J10198D01*
G02X27960300Y21467300I39793J17331D01*
G01X27960600Y21469700D01*
X27914400Y21515900D01*
Y21615600D01*
X27965600D01*
Y21537100D01*
X27996800Y21505900D01*
X27999200Y21506200D01*
G02X28043300Y21445700I4297J-43190D01*
G03X28052700Y21431500I9380J-4002D01*
G01X28355200D01*
G02X28380800Y21442700I29262J-32027D01*
G01X28382600Y21442900D01*
X28555300Y21615600D01*
X28585700D01*
X28615800Y21585500D01*
X28427900Y21397600D01*
X28427700Y21395800D01*
G37*
G36*
G01X28951700Y21442700D02*
G02Y21356300I4300J-43200D01*
G01X28949500Y21356600D01*
G02X28913100Y21393000I6500J42900D01*
G01X28912800Y21395200D01*
G02Y21403800I43200J4300D01*
G01X28913100Y21406000D01*
G02X28949500Y21442400I42900J-6500D01*
G01X28951700Y21442700D01*
G37*
G36*
G01X30647600Y21253700D02*
G02X30566500I-40550J82292D01*
G03X30566100Y21253900I-4757J-9014D01*
G02X30519600Y21308100I40879J82118D01*
G01X30519400Y21308900D01*
G02X30688000Y21379100I87625J27114D01*
G01X30689100Y21376900D01*
G02X30694000Y21365100I-82066J-40995D01*
G02X30647900Y21253900I-86993J-29091D01*
G03X30647600Y21253700I5459J-8513D01*
G37*
G36*
G01X28483000Y21246900D02*
G02Y21298100I-35000J25600D01*
G01X28818400D01*
X28860800Y21340500D01*
X28897000Y21304300D01*
X28839600Y21246900D01*
X28483000D01*
G37*
G36*
G01X31427600Y21237400D02*
G02X31376400I-25600J35049D01*
G01Y21237500D01*
G02X31367000Y21298100I25600J35000D01*
G02X31430600Y21305100I35008J-25644D01*
G02X31437000Y21298100I-28612J-32586D01*
G02X31427600Y21237500I-35000J-25600D01*
G01Y21237400D01*
G37*
G36*
G01X31163300Y21191000D02*
X31031100D01*
G02X30996300Y21234600I71J35745D01*
G01X31198100D01*
G02X31163300Y21191000I-34871J-7855D01*
G37*
G36*
G01X31268100Y21183400D02*
X31215900D01*
G02X31219200Y21183800I3189J-12501D01*
G01X31264800D01*
G02X31268100Y21183400I111J-12901D01*
G37*
G36*
G01X26933500Y21064200D02*
G02X26920200Y21050900I-31050J17750D01*
G01X26933500Y21064200D01*
G37*
G36*
G01X27143000Y21107600D02*
G02Y21056400I35000J-25600D01*
G01X27019000D01*
Y21107600D01*
X27143000D01*
G37*
G36*
G01X26980800Y21039100D02*
X26945400Y21003700D01*
G02X26980800Y21039100I35769J-369D01*
G37*
G36*
G01X26695600Y20945200D02*
X26644400Y20894000D01*
Y21410100D01*
X26661900Y21427600D01*
X26695600D01*
Y20945200D01*
G37*
G36*
G01X31448600Y20848100D02*
X31376200D01*
X31325000Y20899300D01*
X31397400D01*
X31448600Y20848100D01*
G37*
G36*
G01X31294800D02*
G02X31285400Y20908700I-35000J25600D01*
G02X31294800Y20848100I-25631J-35005D01*
G37*
G36*
G01X26845700Y20802400D02*
X26810800D01*
Y20853600D01*
X26824500D01*
X26834900Y20864000D01*
Y20965600D01*
X26862000Y20992700D01*
Y20818700D01*
X26845700Y20802400D01*
G37*
G36*
G01X33219400Y20859600D02*
G02X33074600I-72400J-31600D01*
G01X33075000Y20860400D01*
G02X33219000I72000J-32400D01*
G01X33219400Y20859600D01*
G37*
G36*
G01X31521600Y20729400D02*
G02X31470400I-25600J35100D01*
G01Y20729500D01*
G02X31521600I25600J35000D01*
G01Y20729400D01*
G37*
G36*
G01X27016200Y20618200D02*
G02Y20669400I-35000J25600D01*
G01X27093200D01*
Y20618200D01*
X27016200D01*
G37*
G36*
G01X27366800Y20421400D02*
X27294400D01*
X27243200Y20472600D01*
X27315600D01*
X27366800Y20421400D01*
G37*
G36*
G01X26959000D02*
G02Y20472600I-35000J25600D01*
G01X26959100D01*
G02Y20421400I-35100J-25600D01*
G01X26959000D01*
G37*
G36*
G01X28712600Y20103900D02*
X28691400D01*
X28665800Y20129500D01*
X28702000Y20165700D01*
X28712600Y20155100D01*
X28763800D01*
X28712600Y20103900D01*
G37*
G36*
G01X33499500Y19995100D02*
X33429500D01*
G02Y20140900I0J72900D01*
G01X33499500D01*
G02Y19995100I0J-72900D01*
G37*
G36*
G01X33129500D02*
X33059500D01*
G02Y20140900I0J72900D01*
G01X33129500D01*
G02Y19995100I0J-72900D01*
G37*
G36*
G01X26942400Y19989200D02*
G02X26899500Y19990900I-18440J76807D01*
G03X26899400I-50J-9683D01*
G02X26851700Y20034300I24677J75035D01*
G01X26851600Y20034400D01*
G02X26955600Y20138400I72400J31600D01*
G01X26956300Y20138100D01*
G02X26996100Y20098300I-32297J-72097D01*
G01X26996400Y20097600D01*
G02X26942400Y19989200I-72399J-31584D01*
G37*
G36*
G01X27654400Y20138400D02*
G02X27613600Y20097600I31600J-72400D01*
G01X27614000Y20098400D01*
G02X27653600Y20138000I72000J-32400D01*
G01X27654400Y20138400D01*
G37*
G36*
G01X32855100Y20220500D02*
Y19623200D01*
X32803900Y19674400D01*
Y20241700D01*
X32844300Y20282100D01*
X33517400D01*
X33819900Y20584600D01*
Y22377600D01*
X33830700D01*
X33871100Y22337200D01*
Y20563400D01*
X33538600Y20230900D01*
X32865500D01*
X32855100Y20220500D01*
G37*
G36*
G01X26482100Y19098000D02*
X26349900D01*
G02X26337000Y19110900I50J12950D01*
G01Y19243100D01*
G02X26349900Y19256000I12950J-50D01*
G01X26482100D01*
G02X26495000Y19243100I-50J-12950D01*
G01Y19110900D01*
G02X26482100Y19098000I-12950J50D01*
G37*
G36*
G01X25847100D02*
X25714900D01*
G02X25702000Y19110900I50J12950D01*
G01Y19243100D01*
G02X25714900Y19256000I12950J-50D01*
G01X25847100D01*
G02X25860000Y19243100I-50J-12950D01*
G01Y19110900D01*
G02X25847100Y19098000I-12950J50D01*
G37*
G36*
G01X25212100D02*
X25079900D01*
G02X25067000Y19110900I50J12950D01*
G01Y19243100D01*
G02X25079900Y19256000I12950J-50D01*
G01X25212100D01*
G02X25225000Y19243100I-50J-12950D01*
G01Y19110900D01*
G02X25212100Y19098000I-12950J50D01*
G37*
G36*
G01X33499500Y18975100D02*
X33429500D01*
G02Y19120900I0J72900D01*
G01X33499500D01*
G02Y18975100I0J-72900D01*
G37*
G36*
G01X33129500D02*
X33059500D01*
G02Y19120900I0J72900D01*
G01X33129500D01*
G02Y18975100I0J-72900D01*
G37*
G36*
G01X30831300Y18968500D02*
X30763700D01*
X30708400Y19023800D01*
Y19202600D01*
X30759600D01*
Y19045000D01*
X30784900Y19019700D01*
X30810100D01*
X30898900Y19108500D01*
Y19202600D01*
X30950100D01*
Y19087300D01*
X30831300Y18968500D01*
G37*
G36*
G01X32803200Y18924000D02*
X29045800D01*
X29021200Y18948600D01*
X32793500D01*
X32803900Y18959000D01*
Y19505100D01*
X32829500Y19530700D01*
X32841600Y19518600D01*
X32855100D01*
Y18975900D01*
X32803200Y18924000D01*
G37*
G54D24*
X29432250Y20510500D03*
Y20129500D03*
G54D21*
X33147000Y21590000D03*
X26416000Y19431000D03*
X25781000D03*
X25146000D03*
G54D19*
X25908000Y22860000D03*
X25654000D03*
X25400000D03*
X25146000D03*
X25019000Y21844000D03*
Y21590000D03*
Y21336000D03*
X30607000Y21082000D03*
X25019000D03*
G54D23*
X29591000Y20510500D03*
G54D25*
X29164300D03*
G54D22*
X26670000Y21482000D03*
X30861000Y21209000D03*
X31877000Y20873700D03*
X27221200Y20643800D03*
X27141200D03*
Y20447000D03*
X26860500Y19050000D03*
G54D26*
X27061200Y20447000D03*
G54D20*
X27005300Y22115800D03*
X31686500Y21272500D03*
X31958300Y20873700D03*
%LPD*%
G75*
G54D10*
X25146000Y19177000D03*
X25781000D03*
X26416000D03*
X30988000Y22860000D03*
G54D11*
X25146000Y19431000D03*
X25781000D03*
X26416000D03*
X26924000Y20066000D03*
X27686000D03*
X31305500Y22860000D03*
X33147000Y20828000D03*
Y21590000D03*
G54D12*
X25019000Y21082000D03*
Y21336000D03*
Y21590000D03*
Y21844000D03*
X25146000Y22860000D03*
X25400000D03*
X25654000D03*
X25908000D03*
X30607000Y21082000D03*
Y21336000D03*
Y21590000D03*
Y21844000D03*
G54D13*
X25019000Y22098000D03*
X26162000Y22860000D03*
X30607000Y22098000D03*
G54D14*
X26924000Y20447000D03*
X26981200Y20643800D03*
X27005300Y22115800D03*
X27178000Y21082000D03*
X27813000Y21717000D03*
X27686000Y21907500D03*
X28448000Y21272500D03*
X28384500Y21399500D03*
X28003500Y21463000D03*
X29337000Y20193000D03*
X28956000Y21399500D03*
X29654500Y22352000D03*
X29527500Y22034500D03*
X30797500Y19050000D03*
X31259800Y20873700D03*
X31496000Y20764500D03*
X31562000Y21719500D03*
X31402000Y21272500D03*
X31958300Y20873700D03*
X31686500Y21272500D03*
X31877000Y22161500D03*
X33845500Y22733000D03*
G54D15*
X33094500Y19048000D03*
Y20068000D03*
X33464500Y19048000D03*
Y20068000D03*
G54D16*
G01X26924000Y20066000D02*
X26860500Y20002500D01*
Y18948400D01*
X26885900Y18923000D01*
X32804100D01*
X32829500Y18948400D01*
Y20231100D01*
X32854900Y20256500D01*
X33528000D01*
X33845500Y20574000D01*
Y22733000D01*
G01X27178000Y21082000D02*
X26987500D01*
X26860500Y20955000D01*
Y20853400D01*
X26835100Y20828000D01*
X26695400D01*
X26670000Y20853400D01*
Y21971000D01*
X26814800Y22115800D01*
X27005300D01*
G01X31496000Y20764500D02*
Y20193000D01*
X30924500Y19621500D01*
Y19097900D01*
X30820700Y18994100D01*
X30774300D01*
X30734000Y19034400D01*
Y20129500D01*
X28702000D01*
X28384500Y20447000D01*
X26924000D01*
G01X31402000Y21272500D02*
X31346000D01*
X31282500Y21209000D01*
X30416500D01*
X29718000Y20510500D01*
X28384500D01*
X28251200Y20643800D01*
X26981200D01*
G01X27686000Y21907500D02*
X27876400D01*
X27940000Y21843900D01*
Y21526500D01*
X28003500Y21463000D01*
G01X28448000Y21272500D02*
X28829000D01*
X28956000Y21399500D01*
G01X30607000Y22098000D02*
X29908500D01*
X29654500Y22352000D01*
G01X31877000Y22161500D02*
X30886400D01*
X30861000Y22136100D01*
Y22098000D01*
X30607000Y21844000D01*
G01X31958300Y20873700D02*
X31259800D01*
G54D17*
G01X25146000Y19346900D02*
Y19431000D01*
G01D02*
Y19515100D01*
G01X25061900Y19431000D02*
X25146000D01*
G01D02*
X25230100D01*
G01X25019000Y20985200D02*
Y21082000D01*
G01D02*
Y21178800D01*
G01X24922200Y21082000D02*
X25019000D01*
G01D02*
X25115800D01*
G01X25146000Y22860000D02*
Y22956800D01*
G01X25049200Y22860000D02*
X25146000D01*
G01D02*
X25242800D01*
G01X25781000Y19346900D02*
Y19431000D01*
G01D02*
Y19515100D01*
G01X25696900Y19431000D02*
X25781000D01*
G01D02*
X25865100D01*
G01X26416000Y19346900D02*
Y19431000D01*
G01D02*
Y19515100D01*
G01X26331900Y19431000D02*
X26416000D01*
G01D02*
X26500100D01*
G01X30607000Y20985200D02*
Y21082000D01*
G01X30510200D02*
X30607000D01*
G01D02*
X30703800D01*
G54D18*
G01X25019000D02*
X24892000Y21209000D01*
G01D02*
Y22479000D01*
X25146000Y22733000D01*
G01D02*
Y22860000D01*
G01X29527500Y22034500D02*
X28790900D01*
X28765500Y22009100D01*
Y21780500D01*
X28384500Y21399500D01*
G01D02*
X27876500D01*
X27813000Y21463000D01*
Y21717000D01*
G01X30797500Y20193000D02*
X29337000D01*
G01X29527500Y22034500D02*
X29972000D01*
X30289500Y21717000D01*
X30797500D01*
X30988000Y21907500D01*
X31115000D01*
X31305500Y21717000D01*
X31503500D01*
X31506000Y21719500D01*
X31562000D01*
G01X30797500Y19050000D02*
Y20193000D01*
G01X30607000Y21082000D02*
X30797500Y20891500D01*
G01D02*
Y20193000D01*
G01X31562000Y21719500D02*
Y21397000D01*
X31686500Y21272500D01*
M02*
