G04 ================== begin FILE IDENTIFICATION RECORD ==================*
G04 Layout Name:  C:/USERS/USER/DESKTOP/WORK/AVRUSB500/allegro/my__AVRUSB500.brd*
G04 Film Name:    DrillDraw*
G04 File Format:  Gerber RS274X*
G04 File Origin:  Cadence Allegro 17.2-P019*
G04 Origin Date:  Mon Jul 29 17:21:58 2019*
G04 *
G04 Layer:  BOARD GEOMETRY/DESIGN_OUTLINE*
G04 Layer:  MANUFACTURING/NCLEGEND-1-2*
G04 *
G04 Offset:    (0.000 0.000)*
G04 Mirror:    No*
G04 Mode:      Positive*
G04 Rotation:  0*
G04 FullContactRelief:  No*
G04 UndefLineWidth:     0.100*
G04 ================== end FILE IDENTIFICATION RECORD ====================*
%FSLAX25Y25*MOMM*%
%IR0*IPPOS*OFA0.00000B0.00000*MIA0B0*SFA1.00000B1.00000*%
%AMMACRO11*
1,1,.1,-.45,.25*
20,1,.1,-.45,.25,.45,.25,0.0*
1,1,.1,.45,.25*
20,1,.1,.45,.25,.493412,.246202,0.0*
1,1,.1,.493412,.246202*
20,1,.1,.493412,.246202,.535505,.234923,0.0*
1,1,.1,.535505,.234923*
20,1,.1,.535505,.234923,.575,.216506,0.0*
1,1,.1,.575,.216506*
20,1,.1,.575,.216506,.610697,.191511,0.0*
1,1,.1,.610697,.191511*
20,1,.1,.610697,.191511,.641511,.160697,0.0*
1,1,.1,.641511,.160697*
20,1,.1,.641511,.160697,.666506,.125,0.0*
1,1,.1,.666506,.125*
20,1,.1,.666506,.125,.684923,.085505,0.0*
1,1,.1,.684923,.085505*
20,1,.1,.684923,.085505,.696202,.043412,0.0*
1,1,.1,.696202,.043412*
20,1,.1,.696202,.043412,.7,0.0,0.0*
1,1,.1,.7,0.0*
20,1,.1,.7,0.0,.696202,-.043412,0.0*
1,1,.1,.696202,-.043412*
20,1,.1,.696202,-.043412,.684923,-.085505,0.0*
1,1,.1,.684923,-.085505*
20,1,.1,.684923,-.085505,.666506,-.125,0.0*
1,1,.1,.666506,-.125*
20,1,.1,.666506,-.125,.641511,-.160697,0.0*
1,1,.1,.641511,-.160697*
20,1,.1,.641511,-.160697,.610697,-.191511,0.0*
1,1,.1,.610697,-.191511*
20,1,.1,.610697,-.191511,.575,-.216506,0.0*
1,1,.1,.575,-.216506*
20,1,.1,.575,-.216506,.535505,-.234923,0.0*
1,1,.1,.535505,-.234923*
20,1,.1,.535505,-.234923,.493412,-.246202,0.0*
1,1,.1,.493412,-.246202*
20,1,.1,.493412,-.246202,.45,-.25,0.0*
1,1,.1,.45,-.25*
20,1,.1,.45,-.25,-.45,-.25,0.0*
1,1,.1,-.45,-.25*
20,1,.1,-.45,-.25,-.493412,-.246202,0.0*
1,1,.1,-.493412,-.246202*
20,1,.1,-.493412,-.246202,-.535505,-.234923,0.0*
1,1,.1,-.535505,-.234923*
20,1,.1,-.535505,-.234923,-.575,-.216506,0.0*
1,1,.1,-.575,-.216506*
20,1,.1,-.575,-.216506,-.610697,-.191511,0.0*
1,1,.1,-.610697,-.191511*
20,1,.1,-.610697,-.191511,-.641511,-.160697,0.0*
1,1,.1,-.641511,-.160697*
20,1,.1,-.641511,-.160697,-.666506,-.125,0.0*
1,1,.1,-.666506,-.125*
20,1,.1,-.666506,-.125,-.684923,-.085505,0.0*
1,1,.1,-.684923,-.085505*
20,1,.1,-.684923,-.085505,-.696202,-.043412,0.0*
1,1,.1,-.696202,-.043412*
20,1,.1,-.696202,-.043412,-.7,0.0,0.0*
1,1,.1,-.7,0.0*
20,1,.1,-.7,0.0,-.696202,.043412,0.0*
1,1,.1,-.696202,.043412*
20,1,.1,-.696202,.043412,-.684923,.085505,0.0*
1,1,.1,-.684923,.085505*
20,1,.1,-.684923,.085505,-.666506,.125,0.0*
1,1,.1,-.666506,.125*
20,1,.1,-.666506,.125,-.641511,.160697,0.0*
1,1,.1,-.641511,.160697*
20,1,.1,-.641511,.160697,-.610697,.191511,0.0*
1,1,.1,-.610697,.191511*
20,1,.1,-.610697,.191511,-.575,.216506,0.0*
1,1,.1,-.575,.216506*
20,1,.1,-.575,.216506,-.535505,.234923,0.0*
1,1,.1,-.535505,.234923*
20,1,.1,-.535505,.234923,-.493412,.246202,0.0*
1,1,.1,-.493412,.246202*
20,1,.1,-.493412,.246202,-.45,.25,0.0*
1,1,.1,-.45,.25*
%
%ADD11MACRO11*%
%AMMACRO13*
1,1,.1,.635,0.0*
20,1,.1,.635,0.0,.625353,-.110267,0.0*
1,1,.1,.625353,-.110267*
20,1,.1,.625353,-.110267,.596705,-.217183,0.0*
1,1,.1,.596705,-.217183*
20,1,.1,.596705,-.217183,.549926,-.3175,0.0*
1,1,.1,.549926,-.3175*
20,1,.1,.549926,-.3175,.486438,-.40817,0.0*
1,1,.1,.486438,-.40817*
20,1,.1,.486438,-.40817,.40817,-.486438,0.0*
1,1,.1,.40817,-.486438*
20,1,.1,.40817,-.486438,.3175,-.549926,0.0*
1,1,.1,.3175,-.549926*
20,1,.1,.3175,-.549926,.217183,-.596705,0.0*
1,1,.1,.217183,-.596705*
20,1,.1,.217183,-.596705,.110267,-.625353,0.0*
1,1,.1,.110267,-.625353*
20,1,.1,.110267,-.625353,0.0,-.635,0.0*
1,1,.1,0.0,-.635*
20,1,.1,0.0,-.635,-.110267,-.625353,0.0*
1,1,.1,-.110267,-.625353*
20,1,.1,-.110267,-.625353,-.217183,-.596705,0.0*
1,1,.1,-.217183,-.596705*
20,1,.1,-.217183,-.596705,-.3175,-.549926,0.0*
1,1,.1,-.3175,-.549926*
20,1,.1,-.3175,-.549926,-.40817,-.486438,0.0*
1,1,.1,-.40817,-.486438*
20,1,.1,-.40817,-.486438,-.486438,-.40817,0.0*
1,1,.1,-.486438,-.40817*
20,1,.1,-.486438,-.40817,-.549926,-.3175,0.0*
1,1,.1,-.549926,-.3175*
20,1,.1,-.549926,-.3175,-.596705,-.217183,0.0*
1,1,.1,-.596705,-.217183*
20,1,.1,-.596705,-.217183,-.625353,-.110267,0.0*
1,1,.1,-.625353,-.110267*
20,1,.1,-.625353,-.110267,-.635,0.0,0.0*
1,1,.1,-.635,0.0*
20,1,.1,-.635,0.0,-.625353,.110267,0.0*
1,1,.1,-.625353,.110267*
20,1,.1,-.625353,.110267,-.596705,.217183,0.0*
1,1,.1,-.596705,.217183*
20,1,.1,-.596705,.217183,-.549926,.3175,0.0*
1,1,.1,-.549926,.3175*
20,1,.1,-.549926,.3175,-.486438,.40817,0.0*
1,1,.1,-.486438,.40817*
20,1,.1,-.486438,.40817,-.40817,.486438,0.0*
1,1,.1,-.40817,.486438*
20,1,.1,-.40817,.486438,-.3175,.549926,0.0*
1,1,.1,-.3175,.549926*
20,1,.1,-.3175,.549926,-.217183,.596705,0.0*
1,1,.1,-.217183,.596705*
20,1,.1,-.217183,.596705,-.110267,.625353,0.0*
1,1,.1,-.110267,.625353*
20,1,.1,-.110267,.625353,0.0,.635,0.0*
1,1,.1,0.0,.635*
20,1,.1,0.0,.635,.110267,.625353,0.0*
1,1,.1,.110267,.625353*
20,1,.1,.110267,.625353,.217183,.596705,0.0*
1,1,.1,.217183,.596705*
20,1,.1,.217183,.596705,.3175,.549926,0.0*
1,1,.1,.3175,.549926*
20,1,.1,.3175,.549926,.40817,.486438,0.0*
1,1,.1,.40817,.486438*
20,1,.1,.40817,.486438,.486438,.40817,0.0*
1,1,.1,.486438,.40817*
20,1,.1,.486438,.40817,.549926,.3175,0.0*
1,1,.1,.549926,.3175*
20,1,.1,.549926,.3175,.596705,.217183,0.0*
1,1,.1,.596705,.217183*
20,1,.1,.596705,.217183,.625353,.110267,0.0*
1,1,.1,.625353,.110267*
20,1,.1,.625353,.110267,.635,0.0,0.0*
1,1,.1,.635,0.0*
1,1,.1,.3175,0.0*
20,1,.1,.3175,0.0,-.3175,0.0,0.0*
1,1,.1,-.3175,0.0*
1,1,.1,0.0,.3175*
20,1,.1,0.0,.3175,0.0,-.3175,0.0*
1,1,.1,0.0,-.3175*
%
%ADD13MACRO13*%
%AMMACRO10*
1,1,.1,.533,0.0*
20,1,.1,.533,0.0,.524903,-.092554,0.0*
1,1,.1,.524903,-.092554*
20,1,.1,.524903,-.092554,.500856,-.182297,0.0*
1,1,.1,.500856,-.182297*
20,1,.1,.500856,-.182297,.461592,-.2665,0.0*
1,1,.1,.461592,-.2665*
20,1,.1,.461592,-.2665,.408302,-.342606,0.0*
1,1,.1,.408302,-.342606*
20,1,.1,.408302,-.342606,.342606,-.408302,0.0*
1,1,.1,.342606,-.408302*
20,1,.1,.342606,-.408302,.2665,-.461592,0.0*
1,1,.1,.2665,-.461592*
20,1,.1,.2665,-.461592,.182297,-.500856,0.0*
1,1,.1,.182297,-.500856*
20,1,.1,.182297,-.500856,.092554,-.524903,0.0*
1,1,.1,.092554,-.524903*
20,1,.1,.092554,-.524903,0.0,-.533,0.0*
1,1,.1,0.0,-.533*
20,1,.1,0.0,-.533,-.092554,-.524903,0.0*
1,1,.1,-.092554,-.524903*
20,1,.1,-.092554,-.524903,-.182297,-.500856,0.0*
1,1,.1,-.182297,-.500856*
20,1,.1,-.182297,-.500856,-.2665,-.461592,0.0*
1,1,.1,-.2665,-.461592*
20,1,.1,-.2665,-.461592,-.342606,-.408302,0.0*
1,1,.1,-.342606,-.408302*
20,1,.1,-.342606,-.408302,-.408302,-.342606,0.0*
1,1,.1,-.408302,-.342606*
20,1,.1,-.408302,-.342606,-.461592,-.2665,0.0*
1,1,.1,-.461592,-.2665*
20,1,.1,-.461592,-.2665,-.500856,-.182297,0.0*
1,1,.1,-.500856,-.182297*
20,1,.1,-.500856,-.182297,-.524903,-.092554,0.0*
1,1,.1,-.524903,-.092554*
20,1,.1,-.524903,-.092554,-.533,0.0,0.0*
1,1,.1,-.533,0.0*
20,1,.1,-.533,0.0,-.524903,.092554,0.0*
1,1,.1,-.524903,.092554*
20,1,.1,-.524903,.092554,-.500856,.182297,0.0*
1,1,.1,-.500856,.182297*
20,1,.1,-.500856,.182297,-.461592,.2665,0.0*
1,1,.1,-.461592,.2665*
20,1,.1,-.461592,.2665,-.408302,.342606,0.0*
1,1,.1,-.408302,.342606*
20,1,.1,-.408302,.342606,-.342606,.408302,0.0*
1,1,.1,-.342606,.408302*
20,1,.1,-.342606,.408302,-.2665,.461592,0.0*
1,1,.1,-.2665,.461592*
20,1,.1,-.2665,.461592,-.182297,.500856,0.0*
1,1,.1,-.182297,.500856*
20,1,.1,-.182297,.500856,-.092554,.524903,0.0*
1,1,.1,-.092554,.524903*
20,1,.1,-.092554,.524903,0.0,.533,0.0*
1,1,.1,0.0,.533*
20,1,.1,0.0,.533,.092554,.524903,0.0*
1,1,.1,.092554,.524903*
20,1,.1,.092554,.524903,.182297,.500856,0.0*
1,1,.1,.182297,.500856*
20,1,.1,.182297,.500856,.2665,.461592,0.0*
1,1,.1,.2665,.461592*
20,1,.1,.2665,.461592,.342606,.408302,0.0*
1,1,.1,.342606,.408302*
20,1,.1,.342606,.408302,.408302,.342606,0.0*
1,1,.1,.408302,.342606*
20,1,.1,.408302,.342606,.461592,.2665,0.0*
1,1,.1,.461592,.2665*
20,1,.1,.461592,.2665,.500856,.182297,0.0*
1,1,.1,.500856,.182297*
20,1,.1,.500856,.182297,.524903,.092554,0.0*
1,1,.1,.524903,.092554*
20,1,.1,.524903,.092554,.533,0.0,0.0*
1,1,.1,.533,0.0*
1,1,.1,-.222,-.266*
20,1,.1,-.222,-.266,0.0,.267,0.0*
1,1,.1,0.0,.267*
20,1,.1,0.0,.267,.223,-.266,0.0*
1,1,.1,.223,-.266*
1,1,.1,.143,-.079*
20,1,.1,.143,-.079,-.142,-.079,0.0*
1,1,.1,-.142,-.079*
%
%ADD10MACRO10*%
%AMMACRO12*
1,1,.1,.3935,0.0*
20,1,.1,.3935,0.0,.387522,-.068331,0.0*
1,1,.1,.387522,-.068331*
20,1,.1,.387522,-.068331,.369769,-.134585,0.0*
1,1,.1,.369769,-.134585*
20,1,.1,.369769,-.134585,.340781,-.19675,0.0*
1,1,.1,.340781,-.19675*
20,1,.1,.340781,-.19675,.301438,-.252937,0.0*
1,1,.1,.301438,-.252937*
20,1,.1,.301438,-.252937,.252937,-.301438,0.0*
1,1,.1,.252937,-.301438*
20,1,.1,.252937,-.301438,.19675,-.340781,0.0*
1,1,.1,.19675,-.340781*
20,1,.1,.19675,-.340781,.134585,-.369769,0.0*
1,1,.1,.134585,-.369769*
20,1,.1,.134585,-.369769,.068331,-.387522,0.0*
1,1,.1,.068331,-.387522*
20,1,.1,.068331,-.387522,0.0,-.3935,0.0*
1,1,.1,0.0,-.3935*
20,1,.1,0.0,-.3935,-.068331,-.387522,0.0*
1,1,.1,-.068331,-.387522*
20,1,.1,-.068331,-.387522,-.134585,-.369769,0.0*
1,1,.1,-.134585,-.369769*
20,1,.1,-.134585,-.369769,-.19675,-.340781,0.0*
1,1,.1,-.19675,-.340781*
20,1,.1,-.19675,-.340781,-.252937,-.301438,0.0*
1,1,.1,-.252937,-.301438*
20,1,.1,-.252937,-.301438,-.301438,-.252937,0.0*
1,1,.1,-.301438,-.252937*
20,1,.1,-.301438,-.252937,-.340781,-.19675,0.0*
1,1,.1,-.340781,-.19675*
20,1,.1,-.340781,-.19675,-.369769,-.134585,0.0*
1,1,.1,-.369769,-.134585*
20,1,.1,-.369769,-.134585,-.387522,-.068331,0.0*
1,1,.1,-.387522,-.068331*
20,1,.1,-.387522,-.068331,-.3935,0.0,0.0*
1,1,.1,-.3935,0.0*
20,1,.1,-.3935,0.0,-.387522,.068331,0.0*
1,1,.1,-.387522,.068331*
20,1,.1,-.387522,.068331,-.369769,.134585,0.0*
1,1,.1,-.369769,.134585*
20,1,.1,-.369769,.134585,-.340781,.19675,0.0*
1,1,.1,-.340781,.19675*
20,1,.1,-.340781,.19675,-.301438,.252937,0.0*
1,1,.1,-.301438,.252937*
20,1,.1,-.301438,.252937,-.252937,.301438,0.0*
1,1,.1,-.252937,.301438*
20,1,.1,-.252937,.301438,-.19675,.340781,0.0*
1,1,.1,-.19675,.340781*
20,1,.1,-.19675,.340781,-.134585,.369769,0.0*
1,1,.1,-.134585,.369769*
20,1,.1,-.134585,.369769,-.068331,.387522,0.0*
1,1,.1,-.068331,.387522*
20,1,.1,-.068331,.387522,0.0,.3935,0.0*
1,1,.1,0.0,.3935*
20,1,.1,0.0,.3935,.068331,.387522,0.0*
1,1,.1,.068331,.387522*
20,1,.1,.068331,.387522,.134585,.369769,0.0*
1,1,.1,.134585,.369769*
20,1,.1,.134585,.369769,.19675,.340781,0.0*
1,1,.1,.19675,.340781*
20,1,.1,.19675,.340781,.252937,.301438,0.0*
1,1,.1,.252937,.301438*
20,1,.1,.252937,.301438,.301438,.252937,0.0*
1,1,.1,.301438,.252937*
20,1,.1,.301438,.252937,.340781,.19675,0.0*
1,1,.1,.340781,.19675*
20,1,.1,.340781,.19675,.369769,.134585,0.0*
1,1,.1,.369769,.134585*
20,1,.1,.369769,.134585,.387522,.068331,0.0*
1,1,.1,.387522,.068331*
20,1,.1,.387522,.068331,.3935,0.0,0.0*
1,1,.1,.3935,0.0*
1,1,.1,-.163,-.196*
20,1,.1,-.163,-.196,0.0,.197,0.0*
1,1,.1,0.0,.197*
20,1,.1,0.0,.197,.164,-.196,0.0*
1,1,.1,.164,-.196*
1,1,.1,.105,-.058*
20,1,.1,.105,-.058,-.104,-.058,0.0*
1,1,.1,-.104,-.058*
%
%ADD12MACRO12*%
%ADD14C,.1*%
G75*
%LPD*%
G75*
G54D10*
X12444500Y19352500D03*
X25019000Y21082000D03*
Y21336000D03*
Y21590000D03*
Y21844000D03*
Y22098000D03*
X25146000Y22860000D03*
X25400000D03*
X25654000D03*
X25908000D03*
X26162000D03*
X30607000Y21082000D03*
Y21336000D03*
Y21590000D03*
Y21844000D03*
Y22098000D03*
G54D11*
X12444500Y18717500D03*
X33094500Y19048000D03*
Y20068000D03*
X33464500Y19048000D03*
Y20068000D03*
G54D12*
X12444500Y19987500D03*
X25146000Y19177000D03*
Y19431000D03*
X25781000Y19177000D03*
Y19431000D03*
X26416000Y19177000D03*
Y19431000D03*
X26924000Y20066000D03*
X27686000D03*
X30988000Y22860000D03*
X31305500D03*
X33147000Y20828000D03*
Y21590000D03*
G54D13*
X12444500Y20622500D03*
X26924000Y20447000D03*
X26981200Y20643800D03*
X27005300Y22115800D03*
X27178000Y21082000D03*
X27813000Y21717000D03*
X27686000Y21907500D03*
X28448000Y21272500D03*
X28384500Y21399500D03*
X28003500Y21463000D03*
X29337000Y20193000D03*
X28956000Y21399500D03*
X29654500Y22352000D03*
X29527500Y22034500D03*
X30797500Y19050000D03*
X31259800Y20873700D03*
X31496000Y20764500D03*
X31562000Y21719500D03*
X31402000Y21272500D03*
X31958300Y20873700D03*
X31686500Y21272500D03*
X31877000Y22161500D03*
X33845500Y22733000D03*
G54D14*
G01X11303000Y18400000D02*
Y22860000D01*
X23898900D01*
Y18400000D01*
X11303000D01*
G01Y19035000D02*
X23898900D01*
G01X11303000Y19670000D02*
X23898900D01*
G01X11303000Y20305000D02*
X23898900D01*
G01X11582400Y21098800D02*
Y21416300D01*
X11732000D01*
G01X11676900Y21262800D02*
X11582400D01*
G01X11924900Y21416300D02*
X12019300D01*
G01X11972100D02*
Y21098800D01*
G01X11924900D02*
X12019300D01*
G01X12310600Y21257500D02*
X12389400D01*
Y21162300D01*
X12365700Y21130500D01*
X12338200Y21109400D01*
X12298800Y21098800D01*
X12259400Y21109400D01*
X12231900Y21130500D01*
X12208300Y21162300D01*
X12192500Y21199300D01*
X12184600Y21241700D01*
Y21278700D01*
X12192500Y21310500D01*
X12208300Y21347500D01*
X12231900Y21379300D01*
X12255500Y21400400D01*
X12287000Y21416300D01*
X12314600D01*
X12346000Y21405700D01*
X12369700Y21384500D01*
G01X12515300Y21416300D02*
Y21188800D01*
X12531000Y21141100D01*
X12562500Y21109400D01*
X12601900Y21098800D01*
X12641300Y21109400D01*
X12672800Y21141100D01*
X12688500Y21188800D01*
Y21416300D01*
G01X12838100Y21098800D02*
Y21416300D01*
X12936500D01*
X12968000Y21400400D01*
X12987700Y21379300D01*
X12995500Y21336900D01*
X12987700Y21294600D01*
X12964000Y21268100D01*
X12936500Y21252300D01*
X12838100D01*
G01X12936500D02*
X12995500Y21098800D01*
G01X13310400D02*
X13153000D01*
Y21416300D01*
X13310400D01*
G01X13247400Y21262800D02*
X13153000D01*
G01X11303000Y21575000D02*
X23898900D01*
G01X11303000Y20940000D02*
X23898900D01*
G01X11303000Y22210000D02*
X23898900D01*
G01X13251400Y21733800D02*
X13349800Y22051300D01*
X13448200Y21733800D01*
G01X13412800Y21844900D02*
X13286800D01*
G01X13586000Y22051300D02*
Y21733800D01*
X13743400D01*
G01X13900900Y22051300D02*
Y21733800D01*
X14058300D01*
G01X14522800Y22051300D02*
Y21823800D01*
X14538500Y21776100D01*
X14570000Y21744400D01*
X14609400Y21733800D01*
X14648800Y21744400D01*
X14680300Y21776100D01*
X14696000Y21823800D01*
Y22051300D01*
G01X14833800Y21733800D02*
Y22051300D01*
X15014800Y21733800D01*
Y22051300D01*
G01X15192000D02*
X15286400D01*
G01X15239200D02*
Y21733800D01*
G01X15192000D02*
X15286400D01*
G01X15554100Y22051300D02*
Y21733800D01*
G01X15463600Y22051300D02*
X15644600D01*
G01X15786300Y21776100D02*
X15817800Y21749700D01*
X15853300Y21733800D01*
X15884700D01*
X15916200Y21749700D01*
X15939900Y21776100D01*
X15951700Y21813200D01*
X15943800Y21850200D01*
X15924100Y21882000D01*
X15888700Y21903100D01*
X15841400Y21913700D01*
X15813900Y21934900D01*
X15802100Y21971900D01*
X15810000Y22009000D01*
X15829600Y22035400D01*
X15857200Y22051300D01*
X15884700D01*
X15912300Y22040700D01*
X15935900Y22014300D01*
G01X16400400Y21733800D02*
X16498800Y22051300D01*
X16597200Y21733800D01*
G01X16561800Y21844900D02*
X16435800D01*
G01X16735000Y21733800D02*
Y22051300D01*
X16833400D01*
X16864900Y22035400D01*
X16884600Y22014300D01*
X16892400Y21971900D01*
X16884600Y21929600D01*
X16860900Y21903100D01*
X16833400Y21887300D01*
X16735000D01*
G01X16833400D02*
X16892400Y21733800D01*
G01X17207300D02*
X17049900D01*
Y22051300D01*
X17207300D01*
G01X17144300Y21897800D02*
X17049900D01*
G01X17711200Y22051300D02*
X17805600D01*
G01X17758400D02*
Y21733800D01*
G01X17711200D02*
X17805600D01*
G01X17982800D02*
Y22051300D01*
X18163800Y21733800D01*
Y22051300D01*
G01X18600700Y21733800D02*
Y22051300D01*
X18703100Y21786700D01*
X18805500Y22051300D01*
Y21733800D01*
G01X18970800Y22051300D02*
X19065200D01*
G01X19018000D02*
Y21733800D01*
G01X18970800D02*
X19065200D01*
G01X19254200Y22051300D02*
Y21733800D01*
X19411600D01*
G01X19569100Y22051300D02*
Y21733800D01*
X19726500D01*
G01X19915500Y22051300D02*
X20009900D01*
G01X19962700D02*
Y21733800D01*
G01X19915500D02*
X20009900D01*
G01X20175200D02*
Y22051300D01*
X20277600Y21786700D01*
X20380000Y22051300D01*
Y21733800D01*
G01X20671200D02*
X20513800D01*
Y22051300D01*
X20671200D01*
G01X20608200Y21897800D02*
X20513800D01*
G01X20907400Y22051300D02*
Y21733800D01*
G01X20816900Y22051300D02*
X20997900D01*
G01X21301000Y21733800D02*
X21143600D01*
Y22051300D01*
X21301000D01*
G01X21238000Y21897800D02*
X21143600D01*
G01X21458500Y21733800D02*
Y22051300D01*
X21556900D01*
X21588400Y22035400D01*
X21608100Y22014300D01*
X21615900Y21971900D01*
X21608100Y21929600D01*
X21584400Y21903100D01*
X21556900Y21887300D01*
X21458500D01*
G01X21556900D02*
X21615900Y21733800D01*
G01X21769400Y21776100D02*
X21800900Y21749700D01*
X21836400Y21733800D01*
X21867800D01*
X21899300Y21749700D01*
X21923000Y21776100D01*
X21934800Y21813200D01*
X21926900Y21850200D01*
X21907200Y21882000D01*
X21871800Y21903100D01*
X21824500Y21913700D01*
X21797000Y21934900D01*
X21785200Y21971900D01*
X21793100Y22009000D01*
X21812700Y22035400D01*
X21840300Y22051300D01*
X21867800D01*
X21895400Y22040700D01*
X21919000Y22014300D01*
G01X13586000Y21575000D02*
Y18400000D01*
G01X13578100Y22383800D02*
Y22701300D01*
X13656800D01*
X13688300Y22685400D01*
X13711900Y22664300D01*
X13731600Y22632500D01*
X13747400Y22595500D01*
X13751300Y22542500D01*
X13747400Y22489600D01*
X13731600Y22452600D01*
X13711900Y22420800D01*
X13688300Y22399700D01*
X13656800Y22383800D01*
X13578100D01*
G01X13900900D02*
Y22701300D01*
X13999300D01*
X14030800Y22685400D01*
X14050500Y22664300D01*
X14058300Y22621900D01*
X14050500Y22579600D01*
X14026800Y22553100D01*
X13999300Y22537300D01*
X13900900D01*
G01X13999300D02*
X14058300Y22383800D01*
G01X14247300Y22701300D02*
X14341700D01*
G01X14294500D02*
Y22383800D01*
G01X14247300D02*
X14341700D01*
G01X14530700Y22701300D02*
Y22383800D01*
X14688100D01*
G01X14845600Y22701300D02*
Y22383800D01*
X15003000D01*
G01X15640700Y22674800D02*
X15617100Y22690700D01*
X15589500Y22701300D01*
X15558000D01*
X15522600Y22685400D01*
X15495100Y22659000D01*
X15475400Y22627200D01*
X15459600Y22574300D01*
X15455700Y22526700D01*
X15463600Y22479000D01*
X15475400Y22447300D01*
X15499000Y22415500D01*
X15526500Y22394400D01*
X15554100Y22383800D01*
X15581700D01*
X15609200Y22394400D01*
X15632800Y22410300D01*
X15652500Y22431400D01*
G01X15786300Y22383800D02*
Y22701300D01*
G01X15951700D02*
Y22383800D01*
G01Y22542500D02*
X15786300D01*
G01X16085500Y22383800D02*
X16183900Y22701300D01*
X16282300Y22383800D01*
G01X16246900Y22494900D02*
X16120900D01*
G01X16420100Y22383800D02*
Y22701300D01*
X16518500D01*
X16550000Y22685400D01*
X16569700Y22664300D01*
X16577500Y22621900D01*
X16569700Y22579600D01*
X16546000Y22553100D01*
X16518500Y22537300D01*
X16420100D01*
G01X16518500D02*
X16577500Y22383800D01*
G01X16813700Y22701300D02*
Y22383800D01*
G01X16723200Y22701300D02*
X16904200D01*
G01X17128600Y22373200D02*
X17120700Y22378500D01*
Y22389100D01*
X17128600Y22394400D01*
X17136500Y22389100D01*
Y22378500D01*
X17128600Y22373200D01*
G01Y22516100D02*
X17120700Y22521400D01*
Y22532000D01*
X17128600Y22537300D01*
X17136500Y22532000D01*
Y22521400D01*
X17128600Y22516100D01*
G01X17758400Y22701300D02*
Y22383800D01*
G01X17667900Y22701300D02*
X17848900D01*
G01X18073300Y22383800D02*
X18041800Y22389100D01*
X18014300Y22410300D01*
X17990600Y22442000D01*
X17974900Y22479000D01*
X17967000Y22521400D01*
Y22563700D01*
X17974900Y22606100D01*
X17990600Y22643100D01*
X18014300Y22674800D01*
X18041800Y22696000D01*
X18073300Y22701300D01*
X18104800Y22696000D01*
X18132300Y22674800D01*
X18156000Y22643100D01*
X18171700Y22606100D01*
X18179600Y22563700D01*
Y22521400D01*
X18171700Y22479000D01*
X18156000Y22442000D01*
X18132300Y22410300D01*
X18104800Y22389100D01*
X18073300Y22383800D01*
G01X18309500D02*
Y22701300D01*
X18403900D01*
X18435400Y22685400D01*
X18459100Y22648400D01*
X18466900Y22606100D01*
X18459100Y22563700D01*
X18439400Y22532000D01*
X18403900Y22516100D01*
X18309500D01*
G01X19018000Y22701300D02*
Y22383800D01*
G01X18962900Y22595500D02*
X19073100D01*
G01X19332900Y22383800D02*
X19309300Y22389100D01*
X19285700Y22410300D01*
X19269900Y22447300D01*
X19262000Y22489600D01*
X19269900Y22532000D01*
X19285700Y22569000D01*
X19309300Y22590200D01*
X19332900Y22595500D01*
X19356500Y22590200D01*
X19380100Y22569000D01*
X19395900Y22532000D01*
X19399800Y22489600D01*
X19395900Y22447300D01*
X19380100Y22410300D01*
X19356500Y22389100D01*
X19332900Y22383800D01*
G01X19994200Y22553100D02*
X20009900Y22569000D01*
X20021700Y22595500D01*
X20029600Y22632500D01*
X20021700Y22664300D01*
X20006000Y22685400D01*
X19978400Y22701300D01*
X19872200D01*
Y22383800D01*
X20002100D01*
X20029600Y22405000D01*
X20045400Y22436700D01*
X20053200Y22473800D01*
X20045400Y22510800D01*
X20021700Y22542500D01*
X19994200Y22553100D01*
X19872200D01*
G01X20277600Y22383800D02*
X20246100Y22389100D01*
X20218600Y22410300D01*
X20194900Y22442000D01*
X20179200Y22479000D01*
X20171300Y22521400D01*
Y22563700D01*
X20179200Y22606100D01*
X20194900Y22643100D01*
X20218600Y22674800D01*
X20246100Y22696000D01*
X20277600Y22701300D01*
X20309100Y22696000D01*
X20336600Y22674800D01*
X20360300Y22643100D01*
X20376000Y22606100D01*
X20383900Y22563700D01*
Y22521400D01*
X20376000Y22479000D01*
X20360300Y22442000D01*
X20336600Y22410300D01*
X20309100Y22389100D01*
X20277600Y22383800D01*
G01X20592500Y22701300D02*
Y22383800D01*
G01X20502000Y22701300D02*
X20683000D01*
G01X20907400D02*
Y22383800D01*
G01X20816900Y22701300D02*
X20997900D01*
G01X21222300Y22383800D02*
X21190800Y22389100D01*
X21163300Y22410300D01*
X21139600Y22442000D01*
X21123900Y22479000D01*
X21116000Y22521400D01*
Y22563700D01*
X21123900Y22606100D01*
X21139600Y22643100D01*
X21163300Y22674800D01*
X21190800Y22696000D01*
X21222300Y22701300D01*
X21253800Y22696000D01*
X21281300Y22674800D01*
X21305000Y22643100D01*
X21320700Y22606100D01*
X21328600Y22563700D01*
Y22521400D01*
X21320700Y22479000D01*
X21305000Y22442000D01*
X21281300Y22410300D01*
X21253800Y22389100D01*
X21222300Y22383800D01*
G01X21434800D02*
Y22701300D01*
X21537200Y22436700D01*
X21639600Y22701300D01*
Y22383800D01*
G01X14180400Y21098800D02*
Y21416300D01*
X14330000D01*
G01X14274900Y21262800D02*
X14180400D01*
G01X14522900Y21416300D02*
X14617300D01*
G01X14570100D02*
Y21098800D01*
G01X14522900D02*
X14617300D01*
G01X14794500D02*
Y21416300D01*
X14975500Y21098800D01*
Y21416300D01*
G01X15152700D02*
X15247100D01*
G01X15199900D02*
Y21098800D01*
G01X15152700D02*
X15247100D01*
G01X15432100Y21141100D02*
X15463600Y21114700D01*
X15499100Y21098800D01*
X15530500D01*
X15562000Y21114700D01*
X15585700Y21141100D01*
X15597500Y21178200D01*
X15589600Y21215200D01*
X15569900Y21247000D01*
X15534500Y21268100D01*
X15487200Y21278700D01*
X15459700Y21299900D01*
X15447900Y21336900D01*
X15455800Y21374000D01*
X15475400Y21400400D01*
X15503000Y21416300D01*
X15530500D01*
X15558100Y21405700D01*
X15581700Y21379300D01*
G01X15747000Y21098800D02*
Y21416300D01*
G01X15912400D02*
Y21098800D01*
G01Y21257500D02*
X15747000D01*
G01X16223300Y21098800D02*
X16065900D01*
Y21416300D01*
X16223300D01*
G01X16160300Y21262800D02*
X16065900D01*
G01X16372900Y21098800D02*
Y21416300D01*
X16451600D01*
X16483100Y21400400D01*
X16506700Y21379300D01*
X16526400Y21347500D01*
X16542200Y21310500D01*
X16546100Y21257500D01*
X16542200Y21204600D01*
X16526400Y21167600D01*
X16506700Y21135800D01*
X16483100Y21114700D01*
X16451600Y21098800D01*
X16372900D01*
G01X16656300Y20993000D02*
X16892500D01*
G01X17006600Y21141100D02*
X17038100Y21114700D01*
X17073600Y21098800D01*
X17105000D01*
X17136500Y21114700D01*
X17160200Y21141100D01*
X17172000Y21178200D01*
X17164100Y21215200D01*
X17144400Y21247000D01*
X17109000Y21268100D01*
X17061700Y21278700D01*
X17034200Y21299900D01*
X17022400Y21336900D01*
X17030300Y21374000D01*
X17049900Y21400400D01*
X17077500Y21416300D01*
X17105000D01*
X17132600Y21405700D01*
X17156200Y21379300D01*
G01X17357000Y21416300D02*
X17451400D01*
G01X17404200D02*
Y21098800D01*
G01X17357000D02*
X17451400D01*
G01X17644300Y21416300D02*
X17793900D01*
X17644300Y21098800D01*
X17793900D01*
G01X18112700D02*
X17955300D01*
Y21416300D01*
X18112700D01*
G01X18049700Y21262800D02*
X17955300D01*
G01X15199900Y18558800D02*
Y18876300D01*
X15152700Y18812800D01*
G01Y18558800D02*
X15247100D01*
G01X15514800Y18548200D02*
X15506900Y18553500D01*
Y18564100D01*
X15514800Y18569400D01*
X15522700Y18564100D01*
Y18553500D01*
X15514800Y18548200D01*
G01X15876900Y18558800D02*
Y18876300D01*
X15731300Y18648800D01*
X15928100D01*
G01X16085600Y18770500D02*
X16203600Y18558800D01*
G01Y18770500D02*
X16085600Y18558800D01*
G01X16459500Y18876300D02*
X16428000Y18865700D01*
X16404400Y18839300D01*
X16388600Y18807500D01*
X16376800Y18765200D01*
X16372900Y18717500D01*
X16376800Y18669900D01*
X16388600Y18627600D01*
X16404400Y18595800D01*
X16428000Y18569400D01*
X16459500Y18558800D01*
X16491000Y18569400D01*
X16514600Y18595800D01*
X16530400Y18627600D01*
X16542200Y18669900D01*
X16546100Y18717500D01*
X16542200Y18765200D01*
X16530400Y18807500D01*
X16514600Y18839300D01*
X16491000Y18865700D01*
X16459500Y18876300D01*
G01X16774400Y18548200D02*
X16766500Y18553500D01*
Y18564100D01*
X16774400Y18569400D01*
X16782300Y18564100D01*
Y18553500D01*
X16774400Y18548200D01*
G01X17002700Y18606400D02*
X17026300Y18580000D01*
X17053900Y18564100D01*
X17089300Y18558800D01*
X17124700Y18569400D01*
X17152300Y18590500D01*
X17172000Y18627600D01*
X17175900Y18669900D01*
X17168000Y18712300D01*
X17148300Y18738700D01*
X17120800Y18759900D01*
X17093200Y18765200D01*
X17065700Y18759900D01*
X17030300Y18738700D01*
X17042100Y18876300D01*
X17148300D01*
G01X15514800Y19193800D02*
Y19511300D01*
X15467600Y19447800D01*
G01Y19193800D02*
X15562000D01*
G01X15829700Y19183200D02*
X15821800Y19188500D01*
Y19199100D01*
X15829700Y19204400D01*
X15837600Y19199100D01*
Y19188500D01*
X15829700Y19183200D01*
G01X16144600Y19511300D02*
X16113100Y19500700D01*
X16089500Y19474300D01*
X16073700Y19442500D01*
X16061900Y19400200D01*
X16058000Y19352500D01*
X16061900Y19304900D01*
X16073700Y19262600D01*
X16089500Y19230800D01*
X16113100Y19204400D01*
X16144600Y19193800D01*
X16176100Y19204400D01*
X16199700Y19230800D01*
X16215500Y19262600D01*
X16227300Y19304900D01*
X16231200Y19352500D01*
X16227300Y19400200D01*
X16215500Y19442500D01*
X16199700Y19474300D01*
X16176100Y19500700D01*
X16144600Y19511300D01*
G01X16384700Y19326100D02*
X16412300Y19363100D01*
X16435900Y19384300D01*
X16467400Y19394900D01*
X16494900Y19384300D01*
X16514600Y19363100D01*
X16530400Y19331400D01*
X16534300Y19294300D01*
X16530400Y19262600D01*
X16514600Y19230800D01*
X16491000Y19204400D01*
X16463400Y19193800D01*
X16431900Y19204400D01*
X16404400Y19236100D01*
X16388600Y19283800D01*
X16384700Y19336700D01*
X16392600Y19405500D01*
X16404400Y19442500D01*
X16424100Y19479500D01*
X16451600Y19506000D01*
X16479200Y19511300D01*
X16506700Y19500700D01*
X16526400Y19474300D01*
G01X16766500Y19193800D02*
X16774400Y19262600D01*
X16786200Y19320800D01*
X16802000Y19373700D01*
X16821600Y19431900D01*
X16853100Y19511300D01*
X16695700D01*
G01X15514800Y20146300D02*
X15483300Y20135700D01*
X15459700Y20109300D01*
X15443900Y20077500D01*
X15432100Y20035200D01*
X15428200Y19987500D01*
X15432100Y19939900D01*
X15443900Y19897600D01*
X15459700Y19865800D01*
X15483300Y19839400D01*
X15514800Y19828800D01*
X15546300Y19839400D01*
X15569900Y19865800D01*
X15585700Y19897600D01*
X15597500Y19939900D01*
X15601400Y19987500D01*
X15597500Y20035200D01*
X15585700Y20077500D01*
X15569900Y20109300D01*
X15546300Y20135700D01*
X15514800Y20146300D01*
G01X15829700Y19818200D02*
X15821800Y19823500D01*
Y19834100D01*
X15829700Y19839400D01*
X15837600Y19834100D01*
Y19823500D01*
X15829700Y19818200D01*
G01X16136700Y19828800D02*
X16144600Y19897600D01*
X16156400Y19955800D01*
X16172200Y20008700D01*
X16191800Y20066900D01*
X16223300Y20146300D01*
X16065900D01*
G01X16459500Y19828800D02*
X16487100Y19834100D01*
X16518500Y19850000D01*
X16538200Y19876400D01*
X16546100Y19913500D01*
X16538200Y19950500D01*
X16514600Y19982300D01*
X16479200Y19998100D01*
X16439800D01*
X16416200Y20008700D01*
X16396500Y20035200D01*
X16388600Y20072200D01*
X16400500Y20109300D01*
X16428000Y20135700D01*
X16459500Y20146300D01*
X16491000Y20135700D01*
X16518500Y20109300D01*
X16530400Y20072200D01*
X16522500Y20035200D01*
X16502800Y20008700D01*
X16479200Y19998100D01*
X16439800D01*
X16404400Y19982300D01*
X16380800Y19950500D01*
X16372900Y19913500D01*
X16380800Y19876400D01*
X16400500Y19850000D01*
X16431900Y19834100D01*
X16459500Y19828800D01*
G01X16766500D02*
X16774400Y19897600D01*
X16786200Y19955800D01*
X16802000Y20008700D01*
X16821600Y20066900D01*
X16853100Y20146300D01*
X16695700D01*
G01X15672200Y20781300D02*
X15640700Y20770700D01*
X15617100Y20744300D01*
X15601300Y20712500D01*
X15589500Y20670200D01*
X15585600Y20622500D01*
X15589500Y20574900D01*
X15601300Y20532600D01*
X15617100Y20500800D01*
X15640700Y20474400D01*
X15672200Y20463800D01*
X15703700Y20474400D01*
X15727300Y20500800D01*
X15743100Y20532600D01*
X15754900Y20574900D01*
X15758800Y20622500D01*
X15754900Y20670200D01*
X15743100Y20712500D01*
X15727300Y20744300D01*
X15703700Y20770700D01*
X15672200Y20781300D01*
G01X15987100Y20453200D02*
X15979200Y20458500D01*
Y20469100D01*
X15987100Y20474400D01*
X15995000Y20469100D01*
Y20458500D01*
X15987100Y20453200D01*
G01X16215400Y20527300D02*
X16239000Y20490300D01*
X16270500Y20469100D01*
X16305900Y20463800D01*
X16337400Y20469100D01*
X16368900Y20495500D01*
X16388600Y20527300D01*
X16392500Y20559000D01*
X16384700Y20596100D01*
X16357100Y20622500D01*
X16329600Y20633100D01*
X16294100D01*
G01X16329600D02*
X16353200Y20649000D01*
X16372900Y20675500D01*
X16380700Y20707200D01*
X16372900Y20739000D01*
X16353200Y20765400D01*
X16317700Y20781300D01*
X16282300Y20776000D01*
X16246900Y20754800D01*
G01X16530300Y20527300D02*
X16553900Y20490300D01*
X16585400Y20469100D01*
X16620800Y20463800D01*
X16652300Y20469100D01*
X16683800Y20495500D01*
X16703500Y20527300D01*
X16707400Y20559000D01*
X16699600Y20596100D01*
X16672000Y20622500D01*
X16644500Y20633100D01*
X16609000D01*
G01X16644500D02*
X16668100Y20649000D01*
X16687800Y20675500D01*
X16695600Y20707200D01*
X16687800Y20739000D01*
X16668100Y20765400D01*
X16632600Y20781300D01*
X16597200Y20776000D01*
X16561800Y20754800D01*
G01X18703100Y21575000D02*
Y18400000D01*
G01X19451000Y18558800D02*
Y18876300D01*
X19545400D01*
X19576900Y18860400D01*
X19600600Y18823400D01*
X19608400Y18781100D01*
X19600600Y18738700D01*
X19580900Y18707000D01*
X19545400Y18691100D01*
X19451000D01*
G01X19765900Y18876300D02*
Y18558800D01*
X19923300D01*
G01X20061100D02*
X20159500Y18876300D01*
X20257900Y18558800D01*
G01X20222500Y18669900D02*
X20096500D01*
G01X20474400Y18876300D02*
Y18558800D01*
G01X20383900Y18876300D02*
X20564900D01*
G01X20868000Y18558800D02*
X20710600D01*
Y18876300D01*
X20868000D01*
G01X20805000Y18722800D02*
X20710600D01*
G01X21017600Y18558800D02*
Y18876300D01*
X21096300D01*
X21127800Y18860400D01*
X21151400Y18839300D01*
X21171100Y18807500D01*
X21186900Y18770500D01*
X21190800Y18717500D01*
X21186900Y18664600D01*
X21171100Y18627600D01*
X21151400Y18595800D01*
X21127800Y18574700D01*
X21096300Y18558800D01*
X21017600D01*
G01X19451000Y19193800D02*
Y19511300D01*
X19545400D01*
X19576900Y19495400D01*
X19600600Y19458400D01*
X19608400Y19416100D01*
X19600600Y19373700D01*
X19580900Y19342000D01*
X19545400Y19326100D01*
X19451000D01*
G01X19765900Y19511300D02*
Y19193800D01*
X19923300D01*
G01X20061100D02*
X20159500Y19511300D01*
X20257900Y19193800D01*
G01X20222500Y19304900D02*
X20096500D01*
G01X20474400Y19511300D02*
Y19193800D01*
G01X20383900Y19511300D02*
X20564900D01*
G01X20868000Y19193800D02*
X20710600D01*
Y19511300D01*
X20868000D01*
G01X20805000Y19357800D02*
X20710600D01*
G01X21017600Y19193800D02*
Y19511300D01*
X21096300D01*
X21127800Y19495400D01*
X21151400Y19474300D01*
X21171100Y19442500D01*
X21186900Y19405500D01*
X21190800Y19352500D01*
X21186900Y19299600D01*
X21171100Y19262600D01*
X21151400Y19230800D01*
X21127800Y19209700D01*
X21096300Y19193800D01*
X21017600D01*
G01X19451000Y19828800D02*
Y20146300D01*
X19545400D01*
X19576900Y20130400D01*
X19600600Y20093400D01*
X19608400Y20051100D01*
X19600600Y20008700D01*
X19580900Y19977000D01*
X19545400Y19961100D01*
X19451000D01*
G01X19765900Y20146300D02*
Y19828800D01*
X19923300D01*
G01X20061100D02*
X20159500Y20146300D01*
X20257900Y19828800D01*
G01X20222500Y19939900D02*
X20096500D01*
G01X20474400Y20146300D02*
Y19828800D01*
G01X20383900Y20146300D02*
X20564900D01*
G01X20868000Y19828800D02*
X20710600D01*
Y20146300D01*
X20868000D01*
G01X20805000Y19992800D02*
X20710600D01*
G01X21017600Y19828800D02*
Y20146300D01*
X21096300D01*
X21127800Y20130400D01*
X21151400Y20109300D01*
X21171100Y20077500D01*
X21186900Y20040500D01*
X21190800Y19987500D01*
X21186900Y19934600D01*
X21171100Y19897600D01*
X21151400Y19865800D01*
X21127800Y19844700D01*
X21096300Y19828800D01*
X21017600D01*
G01X19451000Y20463800D02*
Y20781300D01*
X19545400D01*
X19576900Y20765400D01*
X19600600Y20728400D01*
X19608400Y20686100D01*
X19600600Y20643700D01*
X19580900Y20612000D01*
X19545400Y20596100D01*
X19451000D01*
G01X19765900Y20781300D02*
Y20463800D01*
X19923300D01*
G01X20061100D02*
X20159500Y20781300D01*
X20257900Y20463800D01*
G01X20222500Y20574900D02*
X20096500D01*
G01X20474400Y20781300D02*
Y20463800D01*
G01X20383900Y20781300D02*
X20564900D01*
G01X20868000Y20463800D02*
X20710600D01*
Y20781300D01*
X20868000D01*
G01X20805000Y20627800D02*
X20710600D01*
G01X21017600Y20463800D02*
Y20781300D01*
X21096300D01*
X21127800Y20765400D01*
X21151400Y20744300D01*
X21171100Y20712500D01*
X21186900Y20675500D01*
X21190800Y20622500D01*
X21186900Y20569600D01*
X21171100Y20532600D01*
X21151400Y20500800D01*
X21127800Y20479700D01*
X21096300Y20463800D01*
X21017600D01*
G01X19451000Y21098800D02*
Y21416300D01*
X19545400D01*
X19576900Y21400400D01*
X19600600Y21363400D01*
X19608400Y21321100D01*
X19600600Y21278700D01*
X19580900Y21247000D01*
X19545400Y21231100D01*
X19451000D01*
G01X19765900Y21416300D02*
Y21098800D01*
X19923300D01*
G01X20061100D02*
X20159500Y21416300D01*
X20257900Y21098800D01*
G01X20222500Y21209900D02*
X20096500D01*
G01X20474400Y21416300D02*
Y21098800D01*
G01X20383900Y21416300D02*
X20564900D01*
G01X20868000Y21098800D02*
X20710600D01*
Y21416300D01*
X20868000D01*
G01X20805000Y21262800D02*
X20710600D01*
G01X21017600Y21098800D02*
Y21416300D01*
X21096300D01*
X21127800Y21400400D01*
X21151400Y21379300D01*
X21171100Y21347500D01*
X21186900Y21310500D01*
X21190800Y21257500D01*
X21186900Y21204600D01*
X21171100Y21167600D01*
X21151400Y21135800D01*
X21127800Y21114700D01*
X21096300Y21098800D01*
X21017600D01*
G01X21930800Y21575000D02*
Y18400000D01*
G01X22962000Y18558800D02*
Y18876300D01*
X22816400Y18648800D01*
X23013200D01*
G01X22757300Y19193800D02*
Y19511300D01*
X22710100Y19447800D01*
G01Y19193800D02*
X22804500D01*
G01X22985600Y19241400D02*
X23009200Y19215000D01*
X23036800Y19199100D01*
X23072200Y19193800D01*
X23107600Y19204400D01*
X23135200Y19225500D01*
X23154900Y19262600D01*
X23158800Y19304900D01*
X23150900Y19347300D01*
X23131200Y19373700D01*
X23103700Y19394900D01*
X23076100Y19400200D01*
X23048600Y19394900D01*
X23013200Y19373700D01*
X23025000Y19511300D01*
X23131200D01*
G01X22757300Y19828800D02*
Y20146300D01*
X22710100Y20082800D01*
G01Y19828800D02*
X22804500D01*
G01X22997400Y20093400D02*
X23021000Y20125100D01*
X23048600Y20141000D01*
X23080100Y20146300D01*
X23119400Y20135700D01*
X23147000Y20109300D01*
X23154900Y20077500D01*
X23150900Y20045800D01*
X23135200Y20019300D01*
X23056500Y19966400D01*
X23021000Y19929300D01*
X22997400Y19876400D01*
X22989500Y19828800D01*
X23154900D01*
G01X22682500Y20728400D02*
X22706100Y20760100D01*
X22733700Y20776000D01*
X22765200Y20781300D01*
X22804500Y20770700D01*
X22832100Y20744300D01*
X22840000Y20712500D01*
X22836000Y20680800D01*
X22820300Y20654300D01*
X22741600Y20601400D01*
X22706100Y20564300D01*
X22682500Y20511400D01*
X22674600Y20463800D01*
X22840000D01*
G01X22997400Y20728400D02*
X23021000Y20760100D01*
X23048600Y20776000D01*
X23080100Y20781300D01*
X23119400Y20770700D01*
X23147000Y20744300D01*
X23154900Y20712500D01*
X23150900Y20680800D01*
X23135200Y20654300D01*
X23056500Y20601400D01*
X23021000Y20564300D01*
X22997400Y20511400D01*
X22989500Y20463800D01*
X23154900D01*
G01X22599900Y21098800D02*
X22568400Y21104100D01*
X22540900Y21125300D01*
X22517200Y21157000D01*
X22501500Y21194000D01*
X22493600Y21236400D01*
Y21278700D01*
X22501500Y21321100D01*
X22517200Y21358100D01*
X22540900Y21389800D01*
X22568400Y21411000D01*
X22599900Y21416300D01*
X22631400Y21411000D01*
X22658900Y21389800D01*
X22682600Y21358100D01*
X22698300Y21321100D01*
X22706200Y21278700D01*
Y21236400D01*
X22698300Y21194000D01*
X22682600Y21157000D01*
X22658900Y21125300D01*
X22631400Y21104100D01*
X22599900Y21098800D01*
G01X22631400Y21183500D02*
X22678600Y21098800D01*
G01X22914800Y21416300D02*
Y21098800D01*
G01X22824300Y21416300D02*
X23005300D01*
G01X23229700Y21098800D02*
Y21241700D01*
X23151000Y21416300D01*
G01X23308400D02*
X23229700Y21241700D01*
G01X24257000Y18542000D02*
Y23542000D01*
X34257000D01*
Y18542000D01*
X24257000D01*
M02*
