G04 ================== begin FILE IDENTIFICATION RECORD ==================*
G04 Layout Name:  C:/USERS/USER/DESKTOP/WORK/AVRUSB500/allegro/my__AVRUSB500.brd*
G04 Film Name:    SilkB*
G04 File Format:  Gerber RS274X*
G04 File Origin:  Cadence Allegro 17.2-P019*
G04 Origin Date:  Mon Jul 29 17:20:02 2019*
G04 *
G04 Layer:  REF DES/SILKSCREEN_BOTTOM*
G04 Layer:  PACKAGE GEOMETRY/SILKSCREEN_BOTTOM*
G04 Layer:  BOARD GEOMETRY/SILKSCREEN_BOTTOM*
G04 *
G04 Offset:    (0.000 0.000)*
G04 Mirror:    No*
G04 Mode:      Positive*
G04 Rotation:  0*
G04 FullContactRelief:  No*
G04 UndefLineWidth:     0.200*
G04 ================== end FILE IDENTIFICATION RECORD ====================*
%FSLAX25Y25*MOMM*%
%IR0*IPPOS*OFA0.00000B0.00000*MIA0B0*SFA1.00000B1.00000*%
%ADD10C,.2*%
G75*
%LPD*%
G75*
G54D10*
G01X33985400Y18741100D02*
X33991200Y18745100D01*
X33998000Y18747700D01*
X34005800D01*
X34014600Y18743800D01*
X34021400Y18737200D01*
X34026300Y18729300D01*
X34030200Y18716200D01*
X34031100Y18704400D01*
X34029200Y18692600D01*
X34026300Y18684700D01*
X34020400Y18676900D01*
X34013600Y18671600D01*
X34006800Y18669000D01*
X34000000D01*
X33993200Y18671600D01*
X33987300Y18675600D01*
X33982500Y18680800D01*
G01X33944600Y18669000D02*
Y18747700D01*
G01Y18709700D02*
X33939800Y18716200D01*
X33934900Y18720200D01*
X33927100Y18721500D01*
X33921300Y18720200D01*
X33914500Y18714900D01*
X33911600Y18707000D01*
Y18669000D01*
G01X33849400D02*
X33855200Y18670300D01*
X33861100Y18675600D01*
X33865000Y18684700D01*
X33866900Y18695200D01*
X33865000Y18705700D01*
X33861100Y18714900D01*
X33855200Y18720200D01*
X33849400Y18721500D01*
X33843600Y18720200D01*
X33837700Y18714900D01*
X33833800Y18705700D01*
X33832900Y18695200D01*
X33833800Y18684700D01*
X33837700Y18675600D01*
X33843600Y18670300D01*
X33849400Y18669000D01*
G01X33770700Y18721500D02*
Y18669000D01*
G01Y18742500D02*
X33772600Y18743800D01*
Y18746400D01*
X33770700Y18747700D01*
X33768800Y18746400D01*
Y18743800D01*
X33770700Y18742500D01*
G01X33634700Y18669000D02*
Y18747700D01*
G01X33597700D02*
X33634700Y18699200D01*
G01X33591900Y18669000D02*
X33618200Y18721500D01*
G01X33555000Y18645400D02*
X33549200Y18642800D01*
X33541400Y18645400D01*
X33536500Y18650600D01*
X33532700Y18657200D01*
X33526800Y18678200D01*
X33514200Y18721500D01*
G01X33545300D02*
X33526800Y18678200D01*
G01X33472400Y18721500D02*
Y18684700D01*
X33468600Y18675600D01*
X33462700Y18670300D01*
X33455900Y18669000D01*
X33449100Y18670300D01*
X33443200Y18675600D01*
X33439400Y18684700D01*
G01Y18669000D02*
Y18721500D01*
G01X33320900Y18669000D02*
Y18747700D01*
X33276100Y18669000D01*
Y18747700D01*
G01X33202300Y18669000D02*
Y18721500D01*
G01Y18712300D02*
X33206200Y18717500D01*
X33212000Y18720200D01*
X33218800Y18721500D01*
X33225600Y18718800D01*
X33231500Y18713600D01*
X33235400Y18705700D01*
X33237300Y18695200D01*
X33235400Y18684700D01*
X33231500Y18676900D01*
X33225600Y18671600D01*
X33218800Y18669000D01*
X33212000Y18670300D01*
X33206200Y18674200D01*
X33202300Y18679500D01*
G01X33170300Y18669000D02*
Y18721500D01*
G01Y18707000D02*
X33167400Y18713600D01*
X33162500Y18718800D01*
X33155700Y18721500D01*
X33148900Y18718800D01*
X33144000Y18713600D01*
X33141100Y18707000D01*
Y18669000D01*
G01Y18707000D02*
X33138200Y18713600D01*
X33133300Y18718800D01*
X33126500Y18721500D01*
X33119700Y18718800D01*
X33114800Y18713600D01*
X33111900Y18705700D01*
Y18669000D01*
M02*
