G04 ================== begin FILE IDENTIFICATION RECORD ==================*
G04 Layout Name:  C:/USERS/USER/DESKTOP/WORK/AVRUSB500/allegro/my__AVRUSB500.brd*
G04 Film Name:    TOP*
G04 File Format:  Gerber RS274X*
G04 File Origin:  Cadence Allegro 17.2-P019*
G04 Origin Date:  Mon Jul 29 17:21:58 2019*
G04 *
G04 Layer:  ETCH/TOP*
G04 Layer:  PIN/TOP*
G04 Layer:  VIA CLASS/TOP*
G04 *
G04 Offset:    (0.000 0.000)*
G04 Mirror:    No*
G04 Mode:      Positive*
G04 Rotation:  0*
G04 FullContactRelief:  No*
G04 UndefLineWidth:     0.000*
G04 ================== end FILE IDENTIFICATION RECORD ====================*
%FSLAX25Y25*MOMM*%
%IR0*IPPOS*OFA0.00000B0.00000*MIA0B0*SFA1.00000B1.00000*%
%ADD23R,1.72X.4*%
%ADD11C,1.321*%
%ADD10R,1.321X1.321*%
%ADD13C,1.575*%
%ADD14R,1.575X1.575*%
%ADD15O,.457X1.778*%
%ADD17O,1.778X.457*%
%ADD19R,.457X1.778*%
%ADD18R,1.778X.457*%
%ADD21O,1.9X1.2*%
%ADD22R,1.72X1.1*%
%ADD16C,.61*%
%ADD12R,1.499X2.845*%
%ADD20R,2.845X1.499*%
%ADD24C,.254*%
%ADD25C,.381*%
%ADD26C,.382*%
%ADD27C,1.58*%
%ADD28C,1.834*%
G75*
%LPD*%
G75*
G36*
G01X24557100Y18842100D02*
Y23241900D01*
X25172100D01*
G02X25175700Y23233200I-11J-5099D01*
G01X25171100Y23228600D01*
X24995800D01*
X24929900Y23162700D01*
Y22785900D01*
X24993400Y22722400D01*
Y22684300D01*
X25033800Y22643900D01*
X25220100D01*
X25321400Y22745200D01*
Y22784500D01*
G02X25338400Y22792000I10179J-56D01*
G03X25444200Y22779600I61594J67980D01*
G01X25643400Y22580400D01*
X26655200D01*
X26695600Y22620800D01*
Y22785900D01*
X26871100Y22961400D01*
X26889700D01*
X26900000Y22971700D01*
G02X26917400Y22964500I7219J-7179D01*
G01Y22717800D01*
G03X26930400Y22704800I12950J-50D01*
G01X26979700D01*
Y22150800D01*
G03X27030900I25600J-35000D01*
G01Y22704800D01*
X27080200D01*
G03X27093200Y22717800I50J12950D01*
G01Y22964500D01*
G02X27110600Y22971700I10181J21D01*
G01X27120900Y22961400D01*
X27142000D01*
X27152400Y22951000D01*
Y22658900D01*
X27357900Y22453400D01*
X27777000D01*
X27787400Y22443000D01*
Y22214400D01*
X27985200Y22016600D01*
G02X27978000Y21999200I-7179J-7219D01*
G01X27946400D01*
G03X27933400Y21986200I-50J-12950D01*
G01Y21701800D01*
G03X27946400Y21688800I12950J-50D01*
G01X28096200D01*
G03X28109200Y21701800I50J12950D01*
G01Y21986200D01*
G03X28096200Y21999200I-12950J50D01*
G01X28046900D01*
Y22027300D01*
X27838600Y22235600D01*
Y22464200D01*
X27798200Y22504600D01*
X27379100D01*
X27203600Y22680100D01*
Y22972200D01*
X27163200Y23012600D01*
X27142100D01*
X27115400Y23039300D01*
G02X27122600Y23056700I7220J7202D01*
G01X27237200D01*
X27279400Y23014500D01*
Y22658900D01*
X27357900Y22580400D01*
X27929400D01*
X27985200Y22524600D01*
G02X27978000Y22507200I-7179J-7219D01*
G01X27946400D01*
G03X27933400Y22494200I-50J-12950D01*
G01Y22209800D01*
G03X27946400Y22196800I12950J-50D01*
G01X28096200D01*
G03X28109200Y22209800I50J12950D01*
G01Y22494200D01*
G03X28096200Y22507200I-12950J50D01*
G01X28046900D01*
Y22535300D01*
X27950600Y22631600D01*
X27379100D01*
X27330600Y22680100D01*
Y23035700D01*
X27258400Y23107900D01*
X26891300D01*
X26606300Y22822900D01*
Y22769000D01*
X26532400Y22695100D01*
X25855100D01*
X25734400Y22815800D01*
G03X25694900Y22942100I-80378J44189D01*
G02X25699400Y22961400I4561J9111D01*
G01X25862600D01*
G02X25867100Y22942100I-61J-10189D01*
G03X25952200Y22779600I40906J-82111D01*
G01X26001600Y22730200D01*
X26261900D01*
X26291800Y22760100D01*
Y22959900D01*
X26188300Y23063400D01*
X25272500D01*
X25224600Y23015500D01*
Y22935500D01*
G02X25207600Y22928000I-10179J56D01*
G03X25063900Y22900900I-61586J-67976D01*
G02X25044600Y22905400I-9111J4561D01*
G01Y23078000D01*
X25105900Y23139300D01*
X25208100D01*
X25214500Y23145700D01*
X27340800D01*
X27347200Y23139300D01*
X27878500D01*
X27985200Y23032600D01*
G02X27978000Y23015200I-7179J-7219D01*
G01X27946400D01*
G03X27933400Y23002200I-50J-12950D01*
G01Y22717800D01*
G03X27946400Y22704800I12950J-50D01*
G01X28096200D01*
G03X28109200Y22717800I50J12950D01*
G01Y23002200D01*
G03X28096200Y23015200I-12950J50D01*
G01X28046900D01*
Y23043300D01*
X27930200Y23160000D01*
G02X27937400Y23177400I7220J7202D01*
G01X29148500D01*
X29247900Y23078000D01*
Y22785900D01*
X29484100Y22549700D01*
Y22507200D01*
X29434800D01*
G03X29421800Y22494200I-50J-12950D01*
G01Y22391500D01*
G02X29404400Y22384300I-10181J-21D01*
G01X29172100Y22616600D01*
Y23035700D01*
X29131700Y23076100D01*
X28945400D01*
X28754900Y22885600D01*
X28535800D01*
Y23002200D01*
G03X28523000Y23015200I-12900J100D01*
G01X28373000D01*
G03X28360200Y23002200I100J-12900D01*
G01Y22717800D01*
G03X28373000Y22704800I12900J-100D01*
G01X28523000D01*
G03X28535800Y22717800I-100J12900D01*
G01Y22834400D01*
X28776100D01*
X28932000Y22990300D01*
G02X28949400Y22983100I7219J-7179D01*
G01Y22717800D01*
G03X28962400Y22704800I12950J-50D01*
G01X29005300D01*
Y22552100D01*
X29032900Y22524600D01*
G02X29025700Y22507200I-7208J-7207D01*
G01X29008000D01*
G03X28995200Y22494200I100J-12900D01*
G01Y22209800D01*
G03X29008000Y22196800I12900J-100D01*
G01X29158000D01*
G03X29170800Y22209800I-100J12900D01*
G01Y22257800D01*
G02X29188300Y22265000I10226J11D01*
G01X29387200Y22066000D01*
X29478300D01*
G02X29487700Y22051800I20J-10198D01*
G03X29484300Y22038200I39837J-17184D01*
G01X29484100Y22036400D01*
X29477700Y22030000D01*
Y21999200D01*
X29434800D01*
G03X29421800Y21986200I-50J-12950D01*
G01Y21739500D01*
G02X29404400Y21732300I-10181J-21D01*
G01X29299100Y21837600D01*
Y22019700D01*
X29243400Y22075400D01*
X28951300D01*
X28649100Y22377600D01*
X28535800D01*
Y22494200D01*
G03X28523000Y22507200I-12900J100D01*
G01X28373000D01*
G03X28360200Y22494200I100J-12900D01*
G01Y22209800D01*
G03X28373000Y22196800I12900J-100D01*
G01X28523000D01*
G03X28535800Y22209800I-100J12900D01*
G01Y22326400D01*
X28627900D01*
X28930100Y22024200D01*
X28948400D01*
G02X28955600Y22006800I-20J-10198D01*
G01X28709400Y21760600D01*
X28694600D01*
X28585600Y21869600D01*
X28535800D01*
Y21986200D01*
G03X28523000Y21999200I-12900J100D01*
G01X28373000D01*
G03X28360200Y21986200I100J-12900D01*
G01Y21701800D01*
G03X28373000Y21688800I12900J-100D01*
G01X28523000D01*
G03X28535800Y21701800I-100J12900D01*
G01Y21818400D01*
X28564400D01*
X28673400Y21709400D01*
X28730600D01*
X28977700Y21956500D01*
G02X28995200Y21949300I7286J-7159D01*
G01Y21869600D01*
X28945400D01*
X28866900Y21791100D01*
Y21452400D01*
X28913100Y21406200D01*
X28912800Y21403800D01*
G03X28951700Y21442700I43200J-4300D01*
G01X28949300Y21442400D01*
X28918100Y21473600D01*
Y21769900D01*
X28966600Y21818400D01*
X28995200D01*
Y21701800D01*
G03X29008000Y21688800I12900J-100D01*
G01X29057400D01*
Y21665700D01*
X29138700Y21584400D01*
Y21491200D01*
X29089400D01*
G03X29076400Y21478200I-50J-12950D01*
G01Y21193800D01*
G03X29089400Y21180800I12950J-50D01*
G01X29239200D01*
G03X29252200Y21193800I50J12950D01*
G01Y21478200D01*
G03X29239200Y21491200I-12950J50D01*
G01X29189900D01*
Y21605600D01*
X29124100Y21671400D01*
G02X29131300Y21688800I7179J7219D01*
G01X29158000D01*
G03X29170800Y21701800I-100J12900D01*
G01Y21961600D01*
G02X29179600Y21965200I5116J50D01*
G01X29184400Y21960400D01*
Y21706400D01*
X29389900Y21500900D01*
X29496600D01*
G02X29505200Y21485200I7J-10202D01*
G03X29503200Y21478200I10878J-6894D01*
G01Y21193800D01*
G03X29516000Y21180800I12900J-100D01*
G01X29666000D01*
G03X29678800Y21193800I-100J12900D01*
G01Y21478200D01*
G03X29668800Y21490800I-12873J52D01*
G01X29664800Y21491700D01*
Y21500900D01*
X29682000D01*
X29692400Y21490500D01*
Y21350800D01*
X29732800Y21310400D01*
X30518900D01*
X30520000Y21306900D01*
G03X30689100Y21376900I86993J29097D01*
G01X30687400Y21380200D01*
X30823100Y21515900D01*
Y21918100D01*
X30729300Y22011900D01*
X30698500D01*
Y22017600D01*
G03X30698600Y22019200I-12769J1601D01*
G01Y22072400D01*
X30723400D01*
X30835400Y21960400D01*
Y21007900D01*
X30913900Y20929400D01*
X31167900D01*
X31216900Y20880400D01*
X31216600Y20878000D01*
G03X31285400Y20908700I43177J-4319D01*
G01Y20940300D01*
X31267600Y20958100D01*
Y20980100D01*
X31270500Y20981500D01*
G03X31277800Y20993100I-5566J11600D01*
G01Y21009400D01*
X31286700D01*
X31287700Y21005800D01*
G03X31296400Y20991000I34273J10190D01*
G01Y20927900D01*
X31453100Y20771200D01*
X31452800Y20768800D01*
G03X31491700Y20807700I43200J-4300D01*
G01X31489300Y20807400D01*
X31347600Y20949100D01*
Y20991000D01*
G03X31353100Y20998400I-25692J24839D01*
G02X31370900I8900J-5058D01*
G03X31433100I31100J17550D01*
G02X31450900I8900J-5058D01*
G03X31513100I31100J17550D01*
G02X31530900I8900J-5058D01*
G03X31593100I31100J17550D01*
G02X31610900I8900J-5058D01*
G03X31673200I31150J17548D01*
G02X31690900I8850J-4969D01*
G03X31753200I31150J17548D01*
G02X31771000I8900J-5058D01*
G03X31837800Y21016000I31080J17606D01*
G01Y21136100D01*
G02X31846600Y21139700I5116J50D01*
G01X31851400Y21134900D01*
Y20502500D01*
X31216400Y19867500D01*
Y19564600D01*
X31099800D01*
G03X31086800Y19551600I-50J-12950D01*
G01Y19401800D01*
G03X31099800Y19388800I12950J-50D01*
G01X31384200D01*
G03X31397200Y19401800I50J12950D01*
G01Y19551600D01*
G03X31384200Y19564600I-12950J50D01*
G01X31267600D01*
Y19846300D01*
X31853000Y20431700D01*
G02X31870400Y20424500I7219J-7179D01*
G01Y20177800D01*
G03X31883400Y20164800I12950J-50D01*
G01X32033200D01*
G03X32046200Y20177800I50J12950D01*
G01Y20462200D01*
G03X32033200Y20475200I-12950J50D01*
G01X31983900D01*
Y20838700D01*
G03X31932700I-25600J35000D01*
G01Y20475200D01*
X31902600D01*
Y21156100D01*
X31872700Y21186000D01*
X31877900Y21191100D01*
X31880100D01*
G03X31880800Y21191000I5361J35027D01*
G01X32012800D01*
G03X32037800Y21201200I-12J35766D01*
G01X32737600D01*
X33076000Y20862800D01*
X33074600Y20859600D01*
G03X33219400I72400J-31600D01*
G01X33218000Y20862800D01*
X33284600Y20929400D01*
X33411600D01*
X33553600Y21071400D01*
Y21964400D01*
X33670200D01*
G03X33677200Y21966500I-58J12912D01*
G02X33692900Y21957900I5498J-8593D01*
G01Y20610000D01*
X33682500Y20599600D01*
X32359400D01*
Y20475200D01*
X32310000D01*
G03X32297200Y20462200I100J-12900D01*
G01Y20177800D01*
G03X32310000Y20164800I12900J-100D01*
G01X32460000D01*
G03X32472800Y20177800I-100J12900D01*
G01Y20462200D01*
G03X32460000Y20475200I-12900J100D01*
G01X32410600D01*
Y20548400D01*
X33703700D01*
X33744100Y20588800D01*
Y22146700D01*
X33703700Y22187100D01*
X33326900D01*
X32952200Y21812400D01*
X32037800D01*
G03X32012800Y21822600I-25012J-25566D01*
G01X31880800D01*
G03X31863200Y21755700I-45J-35753D01*
G02Y21737900I-5058J-8900D01*
G03Y21675700I17550J-31100D01*
G02Y21657900I-5058J-8900D01*
G03Y21595700I17550J-31100D01*
G02Y21577900I-5058J-8900D01*
G03Y21515700I17550J-31100D01*
G02Y21497900I-5058J-8900D01*
G03Y21435700I17550J-31100D01*
G02Y21417900I-5058J-8900D01*
G03X31870600Y21352500I17562J-31132D01*
G01X31874200Y21351500D01*
Y21342600D01*
X31857900D01*
G03X31845000Y21329600I0J-12900D01*
G01Y21307200D01*
X31821000Y21283200D01*
Y21271500D01*
X31806900Y21257400D01*
Y21196200D01*
X31814500Y21188600D01*
X31809200Y21183200D01*
X31806700Y21183500D01*
G03X31767100Y21155300I-4596J-35450D01*
G02X31757100I-5000J1032D01*
G03X31754600Y21163000I-35039J-7121D01*
G01X31754100Y21164000D01*
Y21250200D01*
X31729900Y21274400D01*
X31729700Y21276200D01*
G03X31682800Y21229300I-43200J-3700D01*
G01X31684600Y21229100D01*
X31690100Y21223600D01*
Y21164000D01*
X31689600Y21163000D01*
G03X31687000Y21155100I32451J-15058D01*
G02X31677100I-4950J987D01*
G03X31610900Y21165600I-35051J-7052D01*
G02X31593100I-8900J5058D01*
G03X31530900I-31100J-17550D01*
G02X31513100I-8900J5058D01*
G03X31450900I-31100J-17550D01*
G02X31433100I-8900J5058D01*
G03X31427600Y21173000I-31192J-17439D01*
G01Y21237500D01*
G03X31376400I-25600J35000D01*
G01Y21173000D01*
G03X31370900Y21165600I25692J-24839D01*
G02X31353100I-8900J5058D01*
G03X31287700Y21158200I-31132J-17562D01*
G01X31286700Y21154600D01*
X31277800D01*
Y21170900D01*
G03X31264800Y21183800I-12900J0D01*
G01X31219200D01*
G03X31206200Y21170900I-100J-12900D01*
G01Y20993100D01*
G03X31213500Y20981500I12866J0D01*
G01X31216400Y20980100D01*
Y20965600D01*
G02X31207700Y20962000I-5099J11D01*
G01X31189100Y20980600D01*
X30935100D01*
X30886600Y21029100D01*
Y21981600D01*
X30744600Y22123600D01*
X30698600D01*
Y22176800D01*
G03X30696600Y22183700I-12878J7D01*
G02X30705200Y22199400I8593J5498D01*
G01X31204100D01*
Y22851800D01*
X31209600Y22857300D01*
G02X31227000Y22851300I7263J-7168D01*
G03X31279900Y22785300I78499J8718D01*
G01Y22214400D01*
X31296400Y22197900D01*
Y22022600D01*
G03X31290900Y22015200I25692J-24839D01*
G02X31273100I-8900J5058D01*
G03X31206200Y21997600I-31147J-17555D01*
G01Y21865600D01*
G03X31273100Y21848000I35753J-45D01*
G02X31290900I8900J-5058D01*
G03X31353100I31100J17550D01*
G02X31370900I8900J-5058D01*
G03X31433100I31100J17550D01*
G02X31450900I8900J-5058D01*
G03X31516300Y21855400I31132J17562D01*
G01X31517300Y21859000D01*
X31526200D01*
Y21842700D01*
G03X31528900Y21834800I12907J0D01*
G01X31530000Y21833400D01*
Y21748800D01*
G03X31594000I32000J-29300D01*
G01Y21833400D01*
X31595100Y21834800D01*
G03X31597800Y21842700I-10207J7900D01*
G01Y21859000D01*
X31606700D01*
X31607700Y21855400D01*
G03X31673200Y21848000I34311J10120D01*
G02X31690900I8850J-4969D01*
G03X31753200I31150J17548D01*
G02X31771000I8900J-5058D01*
G03X31837800Y21865600I31080J17606D01*
G01Y21997600D01*
G03X31827700Y22022600I-35732J104D01*
G01Y22076000D01*
X31870300Y22118600D01*
X31872700Y22118300D01*
G03X31914200Y22183900I4315J43197D01*
G02X31922900Y22199400I8696J5311D01*
G01X32120300D01*
X32239000Y22080700D01*
X32624200D01*
X32664600Y22121100D01*
Y22591200D01*
X32624200Y22631600D01*
X32078200D01*
X31659000Y23050800D01*
X31206100D01*
X31114800Y22959500D01*
Y22400700D01*
X31028200Y22314100D01*
X30431300D01*
X30390900Y22273700D01*
Y21963000D01*
X30431300Y21922600D01*
X30531500D01*
G02X30539000Y21905600I-56J-10179D01*
G03X30520000Y21873100I68005J-61561D01*
G01X30518900Y21869600D01*
X30363600D01*
X30046100Y22187100D01*
X29604100D01*
G02X29595500Y22202800I-7J10202D01*
G03X29597600Y22209800I-10812J7058D01*
G01Y22326400D01*
X29619500D01*
G03Y22377600I35000J25600D01*
G01X29597600D01*
Y22494200D01*
G03X29584600Y22507200I-12950J50D01*
G01X29535300D01*
Y22570900D01*
X29418800Y22687400D01*
G02X29426000Y22704800I7179J7219D01*
G01X29539000D01*
G03X29551800Y22717800I-100J12900D01*
G01Y22834400D01*
X30909000D01*
Y22794000D01*
G03X30922000Y22781000I12950J-50D01*
G01X31054000D01*
G03X31067000Y22794000I50J12950D01*
G01Y22926000D01*
G03X31054000Y22939000I-12950J50D01*
G01X30922000D01*
G03X30909000Y22926000I-50J-12950D01*
G01Y22885600D01*
X29551800D01*
Y23002200D01*
G03X29539000Y23015200I-12900J100D01*
G01X29389000D01*
G03X29376200Y23002200I100J-12900D01*
G01Y22754700D01*
G02X29358700Y22747500I-10214J-41D01*
G01X29299100Y22807100D01*
Y23099200D01*
X29169700Y23228600D01*
X27384200D01*
X27379600Y23233200D01*
G02X27383200Y23241900I3611J3601D01*
G01X33956900D01*
Y18842100D01*
X24557100D01*
G37*
%LPC*%
G75*
G36*
G01X33372800Y22404000D02*
Y22554000D01*
G02X33385800Y22566800I12900J-100D01*
G01X33670200D01*
G02X33683200Y22554000I100J-12900D01*
G01Y22404000D01*
G02X33670200Y22391200I-12900J100D01*
G01X33385800D01*
G02X33372800Y22404000I-100J12900D01*
G37*
G36*
G01X33429500Y19995100D02*
G02Y20140900I0J72900D01*
G01X33499500D01*
G02Y19995100I0J-72900D01*
G01X33429500D01*
G37*
G36*
G01Y18975100D02*
G02Y19120900I0J72900D01*
G01X33499500D01*
G02Y18975100I0J-72900D01*
G01X33429500D01*
G37*
G36*
G01X32995600Y19768000D02*
Y19878000D01*
G02X33008500Y19890900I12900J0D01*
G01X33180500D01*
G02X33193400Y19878000I0J-12900D01*
G01Y19768000D01*
G02X33180500Y19755100I-12900J0D01*
G01X33008500D01*
G02X32995600Y19768000I0J12900D01*
G37*
G36*
G01X33059500Y19995100D02*
G02Y20140900I0J72900D01*
G01X33129500D01*
G02Y19995100I0J-72900D01*
G01X33059500D01*
G37*
G36*
G01Y18975100D02*
G02Y19120900I0J72900D01*
G01X33129500D01*
G02Y18975100I0J-72900D01*
G01X33059500D01*
G37*
G36*
G01X29503200Y20304800D02*
Y20589200D01*
G02X29516000Y20602200I12900J100D01*
G01X29666000D01*
G02X29678800Y20589200I-100J-12900D01*
G01Y20304800D01*
G02X29666000Y20291800I-12900J-100D01*
G01X29516000D01*
G02X29503200Y20304800I100J12900D01*
G37*
G36*
G01X27344200Y22717800D02*
Y23002200D01*
G02X27357000Y23015200I12900J100D01*
G01X27507000D01*
G02X27519800Y23002200I-100J-12900D01*
G01Y22717800D01*
G02X27507000Y22704800I-12900J-100D01*
G01X27357000D01*
G02X27344200Y22717800I100J12900D01*
G37*
G36*
G01X24885400Y19923800D02*
Y20208200D01*
G02X24898400Y20221200I12950J50D01*
G01X25048200D01*
G02X25061200Y20208200I50J-12950D01*
G01Y19923800D01*
G02X25048200Y19910800I-12950J-50D01*
G01X24898400D01*
G02X24885400Y19923800I-50J12950D01*
G37*
G36*
G01X31163200Y21191000D02*
X31031200D01*
G02X31013600Y21257900I-45J35753D01*
G03Y21275700I-5058J8900D01*
G02X31021000Y21341100I17562J31132D01*
G01X31024600Y21342100D01*
Y21351000D01*
X31008300D01*
G02X30995400Y21364000I0J12900D01*
G01Y21409600D01*
G02X31008300Y21422600I12900J100D01*
G01X31024600D01*
Y21431500D01*
X31021000Y21432500D01*
G02X31013600Y21497900I10162J34268D01*
G03Y21515700I-5058J8900D01*
G02Y21577900I17550J31100D01*
G03Y21595700I-5058J8900D01*
G02Y21657900I17550J31100D01*
G03Y21675700I-5058J8900D01*
G02Y21737900I17550J31100D01*
G03Y21755700I-5058J8900D01*
G02X31031200Y21822600I17555J31147D01*
G01X31163200D01*
G02X31180800Y21755700I45J-35753D01*
G03Y21737900I5058J-8900D01*
G02Y21675700I-17550J-31100D01*
G03Y21657900I5058J-8900D01*
G02Y21595700I-17550J-31100D01*
G03Y21577900I5058J-8900D01*
G02Y21515700I-17550J-31100D01*
G03Y21497900I5058J-8900D01*
G02X31173400Y21432500I-17562J-31132D01*
G01X31169800Y21431500D01*
Y21422600D01*
X31186100D01*
G02X31199000Y21409600I0J-12900D01*
G01Y21364000D01*
G02X31186100Y21351000I-12900J-100D01*
G01X31169800D01*
Y21342100D01*
X31173400Y21341100D01*
G02X31180800Y21275700I-10162J-34268D01*
G03Y21257900I5058J-8900D01*
G02X31163200Y21191000I-17555J-31147D01*
G37*
G36*
G01X33838800Y22775900D02*
X33841200Y22776200D01*
G02X33802300Y22737300I4300J-43200D01*
G01X33802600Y22739700D01*
X33517400Y23024900D01*
X32987400D01*
G03X32978800Y23009200I-7J-10202D01*
G02X32980800Y23002200I-10878J-6894D01*
G01Y22717800D01*
G02X32968000Y22704800I-12900J-100D01*
G01X32818000D01*
G02X32805200Y22717800I100J12900D01*
G01Y23002200D01*
G02X32807200Y23009200I12878J106D01*
G03X32798600Y23024900I-8593J5498D01*
G01X32776600D01*
X32586100Y22834400D01*
X32554200D01*
Y22717800D01*
G02X32541200Y22704800I-12950J-50D01*
G01X32391400D01*
G02X32378400Y22717800I-50J12950D01*
G01Y23002200D01*
G02X32391400Y23015200I12950J50D01*
G01X32541200D01*
G02X32554200Y23002200I50J-12950D01*
G01Y22885600D01*
X32564900D01*
X32755400Y23076100D01*
X33538600D01*
X33838800Y22775900D01*
G37*
G36*
G01X28731200Y19021800D02*
X28581400D01*
G02X28568400Y19034800I-50J12950D01*
G01Y19319200D01*
G02X28581400Y19332200I12950J50D01*
G01X28630700D01*
Y19466100D01*
X28612900Y19483900D01*
Y19550000D01*
X29068200Y20005300D01*
X29303500D01*
X29374900Y20076700D01*
Y20690300D01*
X29008800Y21056400D01*
X28730200D01*
Y21007000D01*
G02X28717200Y20994200I-12900J100D01*
G01X28432800D01*
G02X28425800Y20996200I-106J12878D01*
G03X28410100Y20987600I-5498J-8593D01*
G01Y20902100D01*
X28458600Y20853600D01*
X28600600D01*
Y20743200D01*
X28717200D01*
G02X28730200Y20730200I50J-12950D01*
G01Y20580400D01*
G02X28717200Y20567400I-12950J-50D01*
G01X28432800D01*
G02X28419800Y20580400I-50J12950D01*
G01Y20730200D01*
G02X28432800Y20743200I12950J50D01*
G01X28549400D01*
Y20802400D01*
X28437400D01*
X28358900Y20880900D01*
Y21122600D01*
G03X28341500Y21129800I-10198J-20D01*
G01X28283100Y21071400D01*
Y20779300D01*
X28242700Y20738900D01*
X27396000D01*
X27355600Y20779300D01*
Y20835300D01*
X27352700Y20836700D01*
G02X27345400Y20848300I5566J11600D01*
G01Y20864600D01*
X27336500D01*
X27335500Y20861000D01*
G02X27270100Y20853600I-34268J10162D01*
G03X27252300I-8900J-5058D01*
G02X27246800Y20846200I-31192J17439D01*
G01Y20541400D01*
X27651200Y20137000D01*
X27654400Y20138400D01*
G02X27613600Y20097600I31600J-72400D01*
G01X27615000Y20100800D01*
X27195600Y20520200D01*
Y20846200D01*
G02X27190100Y20853600I25692J24839D01*
G03X27172300I-8900J-5058D01*
G02X27166800Y20846200I-31192J17439D01*
G01Y20272600D01*
X26995000Y20100800D01*
X26996400Y20097600D01*
G02X26955600Y20138400I-72400J-31600D01*
G01X26958800Y20137000D01*
X27115600Y20293800D01*
Y20846200D01*
G02X27106200Y20863900I25605J24944D01*
G03X27096200I-5000J-1032D01*
G02X27093700Y20856200I-35039J7121D01*
G01X27093200Y20855200D01*
Y20380500D01*
X26838200Y20125500D01*
X26721500D01*
X26702000Y20106000D01*
Y19189100D01*
X26657900Y19145000D01*
X26495000D01*
Y19111000D01*
G02X26482000Y19098000I-12950J-50D01*
G01X26350000D01*
G02X26337000Y19111000I-50J12950D01*
G01Y19145000D01*
X25860000D01*
Y19111000D01*
G02X25847000Y19098000I-12950J-50D01*
G01X25715000D01*
G02X25702000Y19111000I-50J12950D01*
G01Y19145000D01*
X25225000D01*
Y19111000D01*
G02X25212000Y19098000I-12950J-50D01*
G01X25080000D01*
G02X25067000Y19111000I-50J12950D01*
G01Y19205300D01*
G03X25049600Y19212500I-10181J21D01*
G01X25044600Y19207500D01*
Y19086000D01*
X25055000Y19075600D01*
X27611900D01*
X29008900Y20472600D01*
X29076400D01*
Y20589200D01*
G02X29089400Y20602200I12950J50D01*
G01X29239200D01*
G02X29252200Y20589200I50J-12950D01*
G01Y20304800D01*
G02X29239200Y20291800I-12950J-50D01*
G01X29089400D01*
G02X29076400Y20304800I-50J12950D01*
G01Y20421400D01*
X29030100D01*
X27633100Y19024400D01*
X25033800D01*
X24993400Y19064800D01*
Y19228700D01*
X25094300Y19329600D01*
X26507000D01*
X26517400Y19340000D01*
Y19483900D01*
X25960900Y20040400D01*
X25950200D01*
Y19923800D01*
G02X25937200Y19910800I-12950J-50D01*
G01X25787400D01*
G02X25774400Y19923800I-50J12950D01*
G01Y20208200D01*
G02X25787400Y20221200I12950J50D01*
G01X25836700D01*
Y20291600D01*
X25736300Y20392000D01*
Y20963500D01*
X25389400Y21310400D01*
X25107100D01*
X25106000Y21306900D01*
G02X25059900Y21253900I-86980J29107D01*
G03X25064400Y21234600I4561J-9111D01*
G01X25156600D01*
X25425600Y20965600D01*
Y20221200D01*
X25475000D01*
G02X25487800Y20208200I-100J-12900D01*
G01Y19923800D01*
G02X25475000Y19910800I-12900J-100D01*
G01X25325000D01*
G02X25312200Y19923800I100J12900D01*
G01Y20208200D01*
G02X25325000Y20221200I12900J100D01*
G01X25374400D01*
Y20944400D01*
X25135400Y21183400D01*
X25064400D01*
G03X25059900Y21164100I61J-10189D01*
G02X24978100I-40900J-82100D01*
G03X24973600Y21183400I-4561J9111D01*
G01X24906800D01*
X24866400Y21223800D01*
Y22273700D01*
X24906800Y22314100D01*
X26617100D01*
X26871100Y22060100D01*
X27569600D01*
X27679300Y21950400D01*
X27681700Y21950700D01*
G02X27642800Y21911800I4300J-43200D01*
G01X27643100Y21914200D01*
X27548400Y22008900D01*
X26849900D01*
X26595900Y22262900D01*
X26383400D01*
G03X26374800Y22247200I-7J-10202D01*
G02X26376800Y22240200I-10878J-6894D01*
G01Y21955800D01*
G02X26364000Y21942800I-12900J-100D01*
G01X26314600D01*
Y21918100D01*
X26645000Y21587700D01*
X26745400D01*
G02X26752800Y21593200I24839J-25692D01*
G03Y21611000I-5058J8900D01*
G02X26770400Y21677800I17606J31080D01*
G01X26902400D01*
G02X26920000Y21611000I-6J-35720D01*
G03Y21593200I5058J-8900D01*
G02Y21530900I-17548J-31150D01*
G03Y21513200I4969J-8850D01*
G02X26912600Y21447700I-17520J-31189D01*
G01X26909000Y21446700D01*
Y21437800D01*
X26925300D01*
G02X26938200Y21424800I0J-12900D01*
G01Y21379200D01*
G02X26925300Y21366200I-12900J-100D01*
G01X26909000D01*
Y21357300D01*
X26912600Y21356300D01*
G02X26920000Y21290900I-10162J-34268D01*
G03Y21273100I5058J-8900D01*
G02Y21210900I-17550J-31100D01*
G03Y21193100I5058J-8900D01*
G02Y21130900I-17550J-31100D01*
G03Y21113100I5058J-8900D01*
G02X26902400Y21046200I-17555J-31147D01*
G01X26862000D01*
Y20545200D01*
X26917300Y20489900D01*
X26919700Y20490200D01*
G02X26880800Y20451300I4300J-43200D01*
G01X26881100Y20453700D01*
X26810800Y20524000D01*
Y21046200D01*
X26770400D01*
G02X26752800Y21113100I-45J35753D01*
G03Y21130900I-5058J8900D01*
G02Y21193100I17550J31100D01*
G03Y21210900I-5058J8900D01*
G02Y21273100I17550J31100D01*
G03Y21290900I-5058J8900D01*
G02X26745400Y21296400I17439J31192D01*
G01X26730100D01*
X26695600Y21261900D01*
Y20945200D01*
X26314600Y20564200D01*
Y20221200D01*
X26364000D01*
G02X26376800Y20208200I-100J-12900D01*
G01Y19923800D01*
G02X26364000Y19910800I-12900J-100D01*
G01X26214000D01*
G02X26201200Y19923800I100J12900D01*
G01Y20208200D01*
G02X26214000Y20221200I12900J100D01*
G01X26263400D01*
Y20585400D01*
X26333400Y20655400D01*
G03X26326200Y20672800I-7179J7219D01*
G01X26214000D01*
G02X26201200Y20685800I100J12900D01*
G01Y20970200D01*
G02X26214000Y20983200I12900J100D01*
G01X26263400D01*
Y21029100D01*
X26661900Y21427600D01*
X26734500D01*
X26735900Y21430500D01*
G02X26747500Y21437800I11600J-5566D01*
G01X26763800D01*
Y21446700D01*
X26760200Y21447700D01*
G02X26745400Y21456400I10190J34273D01*
G01X26419000D01*
X26400000Y21437400D01*
X26376800D01*
Y21320800D01*
G02X26364000Y21307800I-12900J-100D01*
G01X26214000D01*
G02X26201200Y21320800I100J12900D01*
G01Y21605200D01*
G02X26214000Y21618200I12900J100D01*
G01X26364000D01*
G02X26376800Y21605200I-100J-12900D01*
G01Y21511300D01*
G03X26394300Y21504100I10214J-41D01*
G01X26397800Y21507600D01*
X26745400D01*
G02X26752800Y21513200I25104J-25484D01*
G03Y21530900I-4969J8850D01*
G02X26745400Y21536500I17704J31084D01*
G01X26623800D01*
X26263400Y21896900D01*
Y21942800D01*
X26214000D01*
G02X26201200Y21955800I100J12900D01*
G01Y22240200D01*
G02X26203200Y22247200I12878J106D01*
G03X26194600Y22262900I-8593J5498D01*
G01X25956700D01*
G03X25948100Y22247200I-7J-10202D01*
G02X25950200Y22240200I-10812J-7058D01*
G01Y21955800D01*
G02X25937200Y21942800I-12950J-50D01*
G01X25787400D01*
G02X25774400Y21955800I-50J12950D01*
G01Y22072400D01*
X25110600D01*
Y22019200D01*
G02X25097800Y22006400I-12850J50D01*
G01X24940200D01*
G02X24933300Y22008400I-7J12878D01*
G03X24917600Y21999800I-5498J-8593D01*
G01Y21889400D01*
G03X24936900Y21884900I10189J61D01*
G02X25106000Y21873100I82109J-40874D01*
G01X25107100Y21869600D01*
X25659600D01*
X25887900Y21641300D01*
Y21618200D01*
X25937200D01*
G02X25950200Y21605200I50J-12950D01*
G01Y21320800D01*
G02X25937200Y21307800I-12950J-50D01*
G01X25825100D01*
G03X25817900Y21290400I-21J-10181D01*
G01X25887900Y21220400D01*
Y20983200D01*
X25937200D01*
G02X25950200Y20970200I50J-12950D01*
G01Y20685800D01*
G02X25937200Y20672800I-12950J-50D01*
G01X25787500D01*
Y20413200D01*
X25887900Y20312800D01*
Y20221200D01*
X25937200D01*
G02X25950200Y20208200I50J-12950D01*
G01Y20091600D01*
X25982100D01*
X26568600Y19505100D01*
Y19318800D01*
X26528200Y19278400D01*
X25115500D01*
X25110500Y19273400D01*
G03X25117700Y19256000I7179J-7219D01*
G01X25212000D01*
G02X25225000Y19243000I50J-12950D01*
G01Y19209000D01*
X25702000D01*
Y19243000D01*
G02X25715000Y19256000I12950J50D01*
G01X25847000D01*
G02X25860000Y19243000I50J-12950D01*
G01Y19209000D01*
X26337000D01*
Y19243000D01*
G02X26350000Y19256000I12950J50D01*
G01X26482000D01*
G02X26495000Y19243000I50J-12950D01*
G01Y19209000D01*
X26631300D01*
X26638000Y19215700D01*
Y20132600D01*
X26694900Y20189500D01*
X26811600D01*
X27029200Y20407100D01*
Y20605800D01*
G03X27011800Y20613000I-10191J-4D01*
G02X26955600Y20678800I-30617J30751D01*
G01Y20846200D01*
G02X26945400Y20871200I25566J25012D01*
G01Y21003200D01*
G02X27016200Y21010500I35764J118D01*
G03X27026200I5000J1032D01*
G02X27028700Y21018200I35039J-7121D01*
G01X27029200Y21019200D01*
Y21038200D01*
X27019000Y21048400D01*
Y21323900D01*
X27063100Y21368000D01*
X27559600D01*
X27580300Y21347300D01*
G03X27594700I7200J7208D01*
G02X27602400Y21353100I25154J-25382D01*
G03Y21370900I-5058J8900D01*
G02Y21433100I17550J31100D01*
G03Y21450900I-5058J8900D01*
G02Y21513200I17548J31150D01*
G03Y21530900I-4969J8850D01*
G02Y21593200I17548J31150D01*
G03Y21611000I-5058J8900D01*
G02X27588700Y21624700I17478J31178D01*
G03X27572600Y21626900I-8886J-5016D01*
G01X27503800Y21558000D01*
X27338700D01*
X27209900Y21686800D01*
X27208900Y21687200D01*
G02X27190100Y21703200I12332J33536D01*
G03X27172300I-8900J-5058D01*
G02X27110100I-31100J17550D01*
G03X27092300I-8900J-5058D01*
G02X27030100I-31100J17550D01*
G03X27012300I-8900J-5058D01*
G02X26945400Y21720800I-31147J17555D01*
G01Y21852800D01*
G02X27012300Y21870400I35753J45D01*
G03X27030100I8900J5058D01*
G02X27092300I31100J-17550D01*
G03X27110100I8900J5058D01*
G02X27172300I31100J-17550D01*
G03X27190100I8900J5058D01*
G02X27252300I31100J-17550D01*
G03X27270100I8900J5058D01*
G02X27332300I31100J-17550D01*
G03X27350100I8900J5058D01*
G02X27415500Y21863000I31132J-17562D01*
G01X27416500Y21859400D01*
X27425400D01*
Y21875700D01*
G02X27438400Y21888600I12900J0D01*
G01X27484000D01*
G02X27497000Y21875700I100J-12900D01*
G01Y21859400D01*
X27505900D01*
X27506900Y21863000D01*
G02X27577000Y21852800I34327J-10070D01*
G01Y21728800D01*
X27593100D01*
X27613300Y21749000D01*
X27783700D01*
G02X27830900Y21677400I29279J-32056D01*
G01X27827900Y21676100D01*
Y21667700D01*
X27835000D01*
X27887100Y21615600D01*
X28585700D01*
X29489600Y20711700D01*
Y19991900D01*
X29284100Y19786400D01*
X29252200D01*
Y19669800D01*
G02X29239200Y19656800I-12950J-50D01*
G01X29089400D01*
G02X29076400Y19669800I-50J12950D01*
G01Y19916500D01*
G03X29059000Y19923700I-10181J21D01*
G01X28664100Y19528800D01*
Y19505100D01*
X28681900Y19487300D01*
Y19332200D01*
X28731200D01*
G02X28744200Y19319200I50J-12950D01*
G01Y19034800D01*
G02X28731200Y19021800I-12950J-50D01*
G37*
G36*
G01X32803200Y18924000D02*
X29045800D01*
X28930400Y19039400D01*
Y19314600D01*
X29453400Y19837600D01*
X29503200D01*
Y19954200D01*
G02X29516000Y19967200I12900J100D01*
G01X29666000D01*
G02X29678800Y19954200I-100J-12900D01*
G01Y19669800D01*
G02X29666000Y19656800I-12900J-100D01*
G01X29516000D01*
G02X29503200Y19669800I100J12900D01*
G01Y19786400D01*
X29474600D01*
X29037800Y19349600D01*
G03X29045000Y19332200I7179J-7219D01*
G01X29158000D01*
G02X29170800Y19319200I-100J-12900D01*
G01Y19202600D01*
X32501400D01*
X32829500Y19530700D01*
X32841600Y19518600D01*
X32995600D01*
Y19597400D01*
X32880900D01*
X32803900Y19674400D01*
Y20241700D01*
X32844300Y20282100D01*
X33517400D01*
X33819900Y20584600D01*
Y22316000D01*
X33809500Y22326400D01*
X32980800D01*
Y22209800D01*
G02X32968000Y22196800I-12900J-100D01*
G01X32818000D01*
G02X32805200Y22209800I100J12900D01*
G01Y22494200D01*
G02X32818000Y22507200I12900J100D01*
G01X32968000D01*
G02X32980800Y22494200I-100J-12900D01*
G01Y22377600D01*
X33830700D01*
X33871100Y22337200D01*
Y20563400D01*
X33538600Y20230900D01*
X32865500D01*
X32855100Y20220500D01*
Y19695600D01*
X32902100Y19648600D01*
X32995600D01*
Y19708000D01*
G02X33008500Y19720900I12900J0D01*
G01X33180500D01*
G02X33193400Y19708000I0J-12900D01*
G01Y19583600D01*
X33221100D01*
X33299600Y19505100D01*
Y19229900D01*
X33221100Y19151400D01*
X33030600D01*
X32803200Y18924000D01*
G37*
G54D27*
X25146000Y19431000D03*
X25781000D03*
X26416000D03*
G54D28*
X30607000Y21082000D03*
%LPD*%
G75*
G36*
G01X27417200Y20790100D02*
X27406800Y20800500D01*
Y20835300D01*
X27409700Y20836700D01*
G03X27417000Y20848300I-5566J11600D01*
G01Y20864600D01*
X27425900D01*
X27426900Y20861000D01*
G03X27492300Y20853600I34268J10162D01*
G02X27510100I8900J-5058D01*
G03X27577000Y20871200I31147J17555D01*
G01Y21003200D01*
G03X27510100Y21020800I-35753J45D01*
G02X27492300I-8900J5058D01*
G03X27426900Y21013400I-31132J-17562D01*
G01X27425900Y21009800D01*
X27417000D01*
Y21026100D01*
G03X27404000Y21039000I-12900J0D01*
G01X27358400D01*
G03X27345400Y21026100I-100J-12900D01*
G01Y21009800D01*
X27336500D01*
X27335500Y21013400D01*
G03X27270100Y21020800I-34268J-10162D01*
G02X27252300I-8900J5058D01*
G03X27246800Y21028200I-31192J-17439D01*
G01Y21049400D01*
X27220900Y21075300D01*
X27221200Y21077700D01*
G03X27143900Y21055200I-43180J4313D01*
G02X27137000Y21038800I-8032J-6272D01*
G03X27106200Y21010500I4229J-35513D01*
G02X27096200I-5000J1032D01*
G03X27093700Y21018200I-35039J-7121D01*
G01X27093200Y21019200D01*
Y21064800D01*
X27083000Y21075000D01*
Y21297300D01*
X27089700Y21304000D01*
X27533000D01*
X27539700Y21297300D01*
Y21288700D01*
X27553700Y21274700D01*
Y21263000D01*
X27586000Y21230700D01*
X27586400Y21229700D01*
G03X27602400Y21210900I33536J12332D01*
G02Y21193100I-5058J-8900D01*
G03X27609800Y21127700I17562J-31132D01*
G01X27613400Y21126700D01*
Y21117800D01*
X27597100D01*
G03X27584200Y21104800I0J-12900D01*
G01Y21059200D01*
G03X27597100Y21046200I12900J-100D01*
G01X27774900D01*
G03X27787800Y21059200I0J12900D01*
G01Y21104800D01*
G03X27774900Y21117800I-12900J100D01*
G01X27758600D01*
Y21126700D01*
X27762200Y21127700D01*
G03X27759300Y21197000I-10140J34286D01*
G02Y21207000I1032J5000D01*
G03X27767000Y21209500I-7121J35039D01*
G01X27768000Y21210000D01*
X27859300D01*
X27908500Y21259200D01*
Y21290000D01*
X28320300D01*
X28386400Y21356100D01*
X28388200Y21356300D01*
G03X28421700Y21421900I-3688J43237D01*
G02X28430400Y21437400I8696J5311D01*
G01X28437400D01*
X28485900Y21388900D01*
Y21318400D01*
G02X28470400Y21309700I-10189J-4D01*
G03X28404800Y21268200I-22403J-37185D01*
G01X28405100Y21265800D01*
X28231900Y21092600D01*
Y20800500D01*
X28221500Y20790100D01*
X27417200D01*
G37*
G36*
G01X29067000Y18975200D02*
X29037800Y19004400D01*
G02X29045000Y19021800I7179J7219D01*
G01X29158000D01*
G03X29170800Y19034800I-100J12900D01*
G01Y19151400D01*
X32522600D01*
X32838600Y19467400D01*
X32995600D01*
Y19408000D01*
G03X33008500Y19395100I12900J0D01*
G01X33180500D01*
G03X33193400Y19408000I0J12900D01*
G01Y19514300D01*
G02X33210800Y19521500I10198J-20D01*
G01X33248400Y19483900D01*
Y19251100D01*
X33199900Y19202600D01*
X33009400D01*
X32782000Y18975200D01*
X31397200D01*
Y19125000D01*
G03X31384200Y19137800I-12900J-100D01*
G01X31099800D01*
G03X31086800Y19125000I-100J-12900D01*
G01Y18975200D01*
X29067000D01*
G37*
%LPC*%
G75*
G36*
G01X32995600Y19238000D02*
Y19348000D01*
G02X33008500Y19360900I12900J0D01*
G01X33180500D01*
G02X33193400Y19348000I0J-12900D01*
G01Y19238000D01*
G02X33180500Y19225100I-12900J0D01*
G01X33008500D01*
G02X32995600Y19238000I0J12900D01*
G37*
%LPD*%
G75*
G54D10*
X25146000Y19177000D03*
X25781000D03*
X26416000D03*
X30988000Y22860000D03*
G54D20*
X28575000Y20655300D03*
Y21082000D03*
X31242000Y19050000D03*
Y19476700D03*
X33528000Y22479000D03*
Y22052300D03*
G54D11*
X25146000Y19431000D03*
X25781000D03*
X26416000D03*
X26924000Y20066000D03*
X27686000D03*
X31305500Y22860000D03*
X33147000Y20828000D03*
Y21590000D03*
G54D12*
X25400000Y20066000D03*
X24973300D03*
X26289000D03*
X25862300D03*
X26289000Y20828000D03*
X25862300D03*
X26289000Y21463000D03*
X25862300D03*
X26289000Y22098000D03*
X25862300D03*
X27005300Y22860000D03*
X27432000D03*
X28448000Y21844000D03*
X28021300D03*
X28448000Y22352000D03*
X28021300D03*
X28448000Y22860000D03*
X28021300D03*
X29083000Y19177000D03*
X28656300D03*
X29164300Y19812000D03*
Y20447000D03*
Y21336000D03*
X29083000Y22352000D03*
Y21844000D03*
X29037300Y22860000D03*
X29591000Y19812000D03*
Y20447000D03*
Y21336000D03*
X29509700Y22352000D03*
Y21844000D03*
X29464000Y22860000D03*
X32385000Y20320000D03*
X31958300D03*
X32893000Y22352000D03*
X32466300D03*
X32893000Y22860000D03*
X32466300D03*
G54D21*
X33094500Y19048000D03*
Y20068000D03*
X33464500Y19048000D03*
Y20068000D03*
G54D22*
X33094500Y19293000D03*
Y19823000D03*
G54D13*
X25019000Y21082000D03*
Y21336000D03*
Y21590000D03*
Y21844000D03*
X25146000Y22860000D03*
X25400000D03*
X25654000D03*
X25908000D03*
X30607000Y21082000D03*
Y21336000D03*
Y21590000D03*
Y21844000D03*
G54D14*
X25019000Y22098000D03*
X26162000Y22860000D03*
X30607000Y22098000D03*
G54D23*
X33094500Y19688000D03*
Y19623000D03*
Y19558000D03*
Y19493000D03*
Y19428000D03*
G54D24*
G01X29164300Y20447000D02*
X29019500D01*
X27622500Y19050000D01*
X25044400D01*
X25019000Y19075400D01*
Y19218100D01*
X25104900Y19304000D01*
X26517600D01*
X26543000Y19329400D01*
Y19494500D01*
X25971500Y20066000D01*
X25862300D01*
G01X27686000Y21907500D02*
X27559000Y22034500D01*
X26860500D01*
X26606500Y22288500D01*
X24917400D01*
X24892000Y22263100D01*
Y21234400D01*
X24917400Y21209000D01*
X25146000D01*
X25400000Y20955000D01*
Y20066000D01*
G01X25019000Y21336000D02*
X25400000D01*
X25761900Y20974100D01*
Y20402600D01*
X25862300Y20302200D01*
Y20066000D01*
G01X25019000Y21590000D02*
X25482100D01*
X25862300Y21209800D01*
Y20828000D01*
G01X25019000Y22098000D02*
X25862300D01*
G01Y21463000D02*
Y21630700D01*
X25649000Y21844000D01*
X25019000D01*
G01X25400000Y22860000D02*
X25654000Y22606000D01*
X26644600D01*
X26670000Y22631400D01*
Y22796500D01*
X26860500Y22987000D01*
X26879100D01*
X26919800Y23027700D01*
X27090800D01*
X27131500Y22987000D01*
X27152600D01*
X27178000Y22961600D01*
Y22669500D01*
X27368500Y22479000D01*
X27787600D01*
X27813000Y22453600D01*
Y22225000D01*
X28021300Y22016700D01*
Y21844000D01*
G01X26162000Y22860000D02*
X26035000Y22987000D01*
X25379700D01*
X25295800Y22903100D01*
Y22755800D01*
X25209500Y22669500D01*
X25044400D01*
X25019000Y22694900D01*
Y22733000D01*
X24955500Y22796500D01*
Y23152100D01*
X25006400Y23203000D01*
X25181700D01*
X25188100Y23209400D01*
X27367200D01*
X27373600Y23203000D01*
X29159100D01*
X29273500Y23088600D01*
Y22796500D01*
X29509700Y22560300D01*
Y22352000D01*
G01X28021300Y22860000D02*
Y23032700D01*
X27889100Y23164900D01*
X27357800D01*
X27351400Y23171300D01*
X25203900D01*
X25197500Y23164900D01*
X25095300D01*
X25019000Y23088600D01*
Y22796500D01*
X25097800Y22717700D01*
X25184100D01*
X25250200Y22783800D01*
Y23004900D01*
X25283100Y23037800D01*
X26177700D01*
X26266200Y22949300D01*
Y22770700D01*
X26251300Y22755800D01*
X26012200D01*
X25908000Y22860000D01*
G01X25862300Y22098000D02*
X25908000D01*
G01X25654000Y22860000D02*
X25844500Y22669500D01*
X26543000D01*
X26631900Y22758400D01*
Y22812300D01*
X26901900Y23082300D01*
X27247800D01*
X27305000Y23025100D01*
Y22669500D01*
X27368500Y22606000D01*
X27940000D01*
X28021300Y22524700D01*
Y22352000D01*
G01X27141200Y20937200D02*
Y20283200D01*
X26924000Y20066000D01*
G01X26836400Y21322000D02*
X26719500D01*
X26670000Y21272500D01*
Y20955800D01*
X26289000Y20574800D01*
Y20066000D01*
G01Y20828000D02*
Y21018500D01*
X26672500Y21402000D01*
X26836400D01*
G01Y21082000D02*
Y20534600D01*
X26924000Y20447000D01*
G01X26981200Y20937200D02*
Y20643800D01*
G01X26729500Y21642100D02*
X26836400D01*
G01D02*
X26943300D01*
G01X26836400Y21482000D02*
X26408400D01*
X26389400Y21463000D01*
X26289000D01*
G01Y22098000D02*
Y21907500D01*
X26634400Y21562100D01*
X26836400D01*
G01X27005300Y22860000D02*
Y22115800D01*
G01X27221200Y20937200D02*
Y20530800D01*
X27686000Y20066000D01*
G01X28448000Y21272500D02*
X28257500Y21082000D01*
Y20789900D01*
X28232100Y20764500D01*
X27406600D01*
X27381200Y20789900D01*
Y20937200D01*
G01X27178000Y21082000D02*
X27221200Y21038800D01*
Y20937200D01*
G01X27686000Y21562100D02*
X27850500D01*
X27860700Y21551900D01*
X28422600D01*
X28575000Y21399500D01*
Y21082000D01*
G01X27686000Y21642100D02*
X27824400D01*
X27876500Y21590000D01*
X28575100D01*
X29464000Y20701100D01*
Y20002500D01*
X29273500Y19812000D01*
X29164300D01*
G01X28003500Y21463000D02*
X27813000D01*
X27794000Y21482000D01*
X27686000D01*
G01Y21402000D02*
X28260000D01*
X28321000Y21463000D01*
X28448000D01*
X28511500Y21399500D01*
Y21234400D01*
X28486100Y21209000D01*
X28448000D01*
X28384500Y21145500D01*
Y20891500D01*
X28448000Y20828000D01*
X28575000D01*
Y20655300D01*
G01X30607000Y21336000D02*
X29743400D01*
X29718000Y21361400D01*
Y21501100D01*
X29692600Y21526500D01*
X29400500D01*
X29210000Y21717000D01*
Y21971000D01*
X29169300Y22011700D01*
X28996700D01*
X28720000Y21735000D01*
X28684000D01*
X28575000Y21844000D01*
X28448000D01*
G01Y22352000D02*
X28638500D01*
X28940700Y22049800D01*
X29232800D01*
X29273500Y22009100D01*
Y21827000D01*
X29510500Y21590000D01*
X30607000D01*
G01Y21844000D02*
X30353000D01*
X30035500Y22161500D01*
X29447000D01*
X29409300Y22199200D01*
Y22343200D01*
X29146500Y22606000D01*
Y23025100D01*
X29121100Y23050500D01*
X28956000D01*
X28765500Y22860000D01*
X28448000D01*
G01X28575000Y21082000D02*
X29019400D01*
X29400500Y20700900D01*
Y20066100D01*
X29314100Y19979700D01*
X29078800D01*
X28638500Y19539400D01*
Y19494500D01*
X28656300Y19476700D01*
Y19177000D01*
G01X33094500Y19558000D02*
X33210500D01*
X33274000Y19494500D01*
Y19240500D01*
X33210500Y19177000D01*
X33020000D01*
X32792600Y18949600D01*
X29056400D01*
X28956000Y19050000D01*
Y19304000D01*
X29464000Y19812000D01*
X29591000D01*
G01X33094500Y19493000D02*
X32831000D01*
X32829500Y19494500D01*
X32512000Y19177000D01*
X29083000D01*
G01X29164300Y21336000D02*
Y21595000D01*
X29083000Y21676300D01*
Y21844000D01*
G01X28956000Y21399500D02*
X28892500Y21463000D01*
Y21780500D01*
X28956000Y21844000D01*
X29083000D01*
G01X29654500Y22352000D02*
X29509700D01*
G01X29464000Y22860000D02*
X30988000D01*
G01X31642000Y21931600D02*
Y22244000D01*
X31686500Y22288500D01*
X32194500D01*
X32321500Y22161500D01*
X32550100D01*
X32575500Y22186900D01*
Y22517100D01*
X32550100Y22542500D01*
X32067500D01*
X31623000Y22987000D01*
X31303100D01*
X31178500Y22862400D01*
Y22225000D01*
X30505400D01*
X30480000Y22199600D01*
Y22031500D01*
X30525200Y21986300D01*
X30718700D01*
X30797500Y21907500D01*
Y21526500D01*
X30607000Y21336000D01*
G01Y21590000D02*
X30711200Y21694200D01*
Y21922800D01*
X30685800Y21948200D01*
X30441900D01*
X30416500Y21973600D01*
Y22263100D01*
X30441900Y22288500D01*
X31038800D01*
X31140400Y22390100D01*
Y22948900D01*
X31216700Y23025200D01*
X31648400D01*
X32067600Y22606000D01*
X32613600D01*
X32639000Y22580600D01*
Y22131700D01*
X32613600Y22106300D01*
X32249600D01*
X32130900Y22225000D01*
X31750000D01*
X31722100Y22197100D01*
Y21931600D01*
G01X31259800Y20873700D02*
X31178500Y20955000D01*
X30924500D01*
X30861000Y21018500D01*
Y21971000D01*
X30734000Y22098000D01*
X30607000D01*
G01X31946800Y21306800D02*
X31880800D01*
X31846600Y21272600D01*
Y21260900D01*
X31832500Y21246800D01*
Y21206800D01*
X31846600Y21192700D01*
Y21175900D01*
X31877000Y21145500D01*
Y20491900D01*
X31242000Y19856900D01*
Y19476700D01*
G01Y21082000D02*
Y20947500D01*
X31259800Y20929700D01*
Y20873700D01*
G01X31322000Y21082000D02*
Y20938500D01*
X31496000Y20764500D01*
G01X31402000Y21082000D02*
Y21272500D01*
G01X31322000Y21931600D02*
Y22208500D01*
X31305500Y22225000D01*
Y22860000D01*
G01X31958300Y20320000D02*
Y20873700D01*
G01X31946800Y21306800D02*
X32863800D01*
X33147000Y21590000D01*
G01X31946800Y21226800D02*
X32748200D01*
X33147000Y20828000D01*
G01X32385000Y20320000D02*
Y20574000D01*
X33693100D01*
X33718500Y20599400D01*
Y22136100D01*
X33693100Y22161500D01*
X33337500D01*
X32962800Y21786800D01*
X31946800D01*
G01X31802100Y21931600D02*
Y22086600D01*
X31877000Y22161500D01*
G01X33094500Y19390000D02*
Y19428000D01*
G01D02*
X33198500D01*
G01X32893000Y22352000D02*
X33820100D01*
X33845500Y22326600D01*
Y20574000D01*
X33528000Y20256500D01*
X32854900D01*
X32829500Y20231100D01*
Y19685000D01*
X32891500Y19623000D01*
X33094500D01*
G01X33845500Y22733000D02*
X33528000Y23050500D01*
X32766000D01*
X32575500Y22860000D01*
X32466300D01*
G01X33147000Y20828000D02*
X33274000Y20955000D01*
X33401000D01*
X33528000Y21082000D01*
Y22052300D01*
G54D15*
X26981200Y20937200D03*
Y21786800D03*
X27061200Y20937200D03*
X27141200D03*
X27221200D03*
X27301200D03*
X27461200D03*
X27541200D03*
Y21786800D03*
X27381200D03*
X27301200D03*
X27221200D03*
X27141200D03*
X27061200D03*
X31322000Y21082000D03*
X31402000D03*
X31482000D03*
X31562000D03*
X31482000Y21931600D03*
X31402000D03*
X31322000D03*
X31242000D03*
X31642000Y21082000D03*
X31722100D03*
X31802100D03*
Y21931600D03*
X31722100D03*
X31642000D03*
G54D25*
G01X24880300Y20066000D02*
X24973300D01*
G01D02*
X25066300D01*
G01X25146000Y19431000D02*
Y19515100D01*
G01X25061900Y19431000D02*
X25146000D01*
G01X24922200Y21082000D02*
X25019000D01*
G01D02*
X25115800D01*
G01X29591000Y20286700D02*
Y20447000D01*
G01D02*
X29684000D01*
G01X30607000Y20985200D02*
Y21082000D01*
G01D02*
Y21178800D01*
G01Y21082000D02*
X30703800D01*
G01X33528000Y22479000D02*
Y22572000D01*
G01X33367700Y22479000D02*
X33528000D01*
G01D02*
X33688300D01*
G54D16*
X26924000Y20447000D03*
X26981200Y20643800D03*
X27005300Y22115800D03*
X27178000Y21082000D03*
X27813000Y21717000D03*
X27686000Y21907500D03*
X28448000Y21272500D03*
X28384500Y21399500D03*
X28003500Y21463000D03*
X29337000Y20193000D03*
X28956000Y21399500D03*
X29654500Y22352000D03*
X29527500Y22034500D03*
X30797500Y19050000D03*
X31259800Y20873700D03*
X31496000Y20764500D03*
X31562000Y21719500D03*
X31402000Y21272500D03*
X31958300Y20873700D03*
X31686500Y21272500D03*
X31877000Y22161500D03*
X33845500Y22733000D03*
G54D26*
G01X25146000Y19177000D02*
X25781000D01*
G01X25146000Y19431000D02*
X25781000D01*
G01X25146000D02*
X24973300Y19603700D01*
G01D02*
Y20066000D01*
G01Y20932100D02*
Y20066000D01*
G01X25019000Y20977800D02*
X24973300Y20932100D01*
G01X25019000Y21082000D02*
Y20977800D01*
G01X25146000Y22860000D02*
Y23050400D01*
G01D02*
X25222400Y23126800D01*
X27332900D01*
X27432000Y23027700D01*
G01X25781000Y19177000D02*
X26416000D01*
G01X25781000Y19431000D02*
X26416000D01*
G01X27061200Y20937200D02*
Y20393800D01*
X26824900Y20157500D01*
X26708200D01*
X26670000Y20119300D01*
Y19202400D01*
X26644600Y19177000D01*
X26416000D01*
G01X26836400Y21642100D02*
Y21869300D01*
G01D02*
X26874600Y21907500D01*
X27195900D01*
G01X27301200Y20937200D02*
Y20641300D01*
G01D02*
X27432000Y20510500D01*
X28892500D01*
X29019500Y20637500D01*
X29311600D01*
X29337000Y20612100D01*
Y20193000D01*
G01X27686000Y21322000D02*
X27876500D01*
G01X27061200Y20937200D02*
Y21051500D01*
X27051000Y21061700D01*
Y21310600D01*
X27076400Y21336000D01*
X27546300D01*
X27571700Y21310600D01*
Y21302000D01*
X27585700Y21288000D01*
Y21276300D01*
X27620000Y21242000D01*
X27686000D01*
G01X27876500Y21322000D02*
Y21272500D01*
X27846000Y21242000D01*
X27686000D01*
G01X27221200Y21786800D02*
Y21720800D01*
X27352000Y21590000D01*
X27490500D01*
X27597300Y21696800D01*
X27606400D01*
X27626600Y21717000D01*
X27813000D01*
G01X27301200Y20937200D02*
Y21056600D01*
G01D02*
X27326600Y21082000D01*
X27432000D01*
X27461200Y21052800D01*
G01D02*
Y20937200D01*
G01X27141200Y21786800D02*
Y21852800D01*
X27195900Y21907500D01*
G01X27541200Y21786800D02*
X27743200D01*
G01X27195900Y21907500D02*
X27503000D01*
G01D02*
X27541200Y21869300D01*
Y21786800D01*
G01X27743200D02*
X27749500Y21780500D01*
X27851100D01*
X27876500Y21755100D01*
Y21678900D01*
X27901900Y21653500D01*
X28105100D01*
X28130500Y21678900D01*
G01D02*
Y22580600D01*
X28105100Y22606000D01*
X28022100D01*
X27942200Y22685900D01*
X27933200D01*
X27914500Y22704600D01*
Y22713600D01*
X27813000Y22815100D01*
Y22821800D01*
X27774800Y22860000D01*
G01D02*
X27432000D01*
G01Y23027700D02*
Y22860000D01*
G01X28384500Y21399500D02*
X28307000Y21322000D01*
X27876500D01*
G01X29591000Y21145500D02*
X29083000D01*
X28575000Y21653500D01*
X28155900D01*
X28130500Y21678900D01*
G01X29037300Y22860000D02*
Y22565400D01*
X29083000Y22519700D01*
Y22352000D01*
G01X29527500Y22034500D02*
X29692600D01*
X29718000Y22059900D01*
Y22072600D01*
X29692600Y22098000D01*
X29400500D01*
X29146500Y22352000D01*
X29083000D01*
G01X29591000Y21082000D02*
Y20447000D01*
G01Y21336000D02*
Y21145500D01*
G01D02*
Y21082000D01*
G01D02*
X30607000D01*
G01X29527500Y22034500D02*
X29509700Y22016700D01*
Y21844000D01*
G01X31242000Y19050000D02*
X30797500D01*
G01X30607000Y21082000D02*
X30988000Y20701000D01*
G01X31242000Y19050000D02*
X32512000D01*
G01X30988000Y20701000D02*
X31776700D01*
X31802100Y20726400D01*
G01X31402000Y21931600D02*
Y21678900D01*
G01D02*
X31427400Y21653500D01*
X31658300D01*
X31750000Y21745200D01*
G01X32466300Y22352000D02*
X31587400D01*
X31562000Y22326600D01*
Y21931600D01*
G01D02*
Y21719500D01*
G01X31802100Y20726400D02*
Y21082000D01*
G01X31722100D02*
Y21236900D01*
X31686500Y21272500D01*
G01X31750000Y21745200D02*
X31802100Y21693100D01*
Y21279400D01*
X31788000Y21265300D01*
Y21188300D01*
G01D02*
X31802100Y21174200D01*
Y21082000D01*
G01X32893000Y22692300D02*
X32702500Y22501800D01*
Y22005200D01*
X32604800Y21907500D01*
X31921400D01*
X31824800Y21810900D01*
X31815700D01*
X31750000Y21745200D01*
G01X32512000Y19050000D02*
X32893000Y19431000D01*
X32896000Y19428000D01*
G01D02*
X33094500D01*
G01X32893000Y22860000D02*
Y22692300D01*
G01X33147000Y22860000D02*
X32893000D01*
G01X33528000Y22479000D02*
X33147000Y22860000D01*
G54D17*
X26836400Y21642100D03*
Y21562100D03*
Y21482000D03*
Y21322000D03*
Y21242000D03*
Y21162000D03*
Y21082000D03*
X27686000Y21162000D03*
Y21242000D03*
Y21322000D03*
Y21402000D03*
Y21482000D03*
Y21562100D03*
Y21642100D03*
X31097200Y21626800D03*
Y21546800D03*
Y21466800D03*
Y21306800D03*
Y21226800D03*
Y21786800D03*
Y21706800D03*
X31946800Y21226800D03*
Y21386800D03*
Y21466800D03*
Y21546800D03*
Y21626800D03*
Y21706800D03*
Y21786800D03*
G54D18*
X26836400Y21402000D03*
X27686000Y21082000D03*
X31097200Y21386800D03*
X31946800Y21306800D03*
G54D19*
X27381200Y20937200D03*
X27461200Y21786800D03*
X31242000Y21082000D03*
X31562000Y21931600D03*
M02*
